<svg xmlns="http://www.w3.org/2000/svg" viewBox="0 0 44 44" fill="none">
  <circle cx="22" cy="22" r="21.5" stroke="#E1261C"/>
  <path d="M12 27.5c1.7-2.3 4.2-3.5 7.3-3.5h2.8c1.8 0 3.1-.5 4.2-1.5l1.8-1.7c1-.9 2.4-.9 3.2 0 .9 1 .9 2.4 0 3.3l-3.1 2.9c-1.8 1.7-3.9 2.5-6.4 2.5H19c-2.1 0-4 .6-5.7 1.9L12 32.3" stroke="#E1261C" stroke-width="1.6" stroke-linecap="round" stroke-linejoin="round"/>
  <path d="m22 11.2 1.7 3.3 3.6.5-2.6 2.5.6 3.5-3.3-1.8-3.3 1.8.6-3.5-2.6-2.5 3.6-.5 1.7-3.3Z" fill="#0A090F" stroke="#0A090F" stroke-width=".4"/>
</svg>
