<svg width="59" height="50" viewBox="0 0 59 50" fill="none" xmlns="http://www.w3.org/2000/svg">
<path d="M14.6955 34.4304C13.5335 34.4304 8.49806 34.2152 4.71072 30.557C1.91325 27.8456 0.449978 23.9721 0.449978 19.0228H3.54872C3.54872 23.1114 4.66768 26.2532 6.86262 28.362C10.1335 31.5038 14.7386 31.3747 14.7816 31.3747C24.4221 30.9443 25.7563 23.7139 25.8854 22.8532V3.09873H5.87275V0H28.9841V23.0683C28.9841 23.1544 27.65 33.8278 14.9107 34.3873C14.9107 34.3873 14.8246 34.3873 14.6955 34.3873V34.4304Z" fill="white"/>
<path d="M14.8677 30.5139C7.89554 30.5139 5.18415 25.0911 4.75377 22.2076C4.62466 21.4759 3.76388 15.1063 6.64742 11.7924C7.72337 10.5013 9.27275 9.85569 11.0373 9.85569H22.0981V7.48861H5.9158V4.38987H25.1968V19.4962C25.2398 20.1848 25.455 24.4456 22.7006 27.5443C20.893 29.524 18.2677 30.557 14.9107 30.557L14.8677 30.5139ZM10.9943 12.9544C10.0905 12.9544 9.44491 13.2127 8.92846 13.8152C7.29302 15.7089 7.5082 20.1848 7.76643 21.7772C7.8525 22.3367 8.8854 27.4582 14.8246 27.4582C20.7639 27.4582 19.1284 26.7696 20.2905 25.4785C22.3133 23.2405 22.012 19.7544 22.012 19.7544V19.5823V12.9544H10.9512H10.9943Z" fill="white"/>
<path d="M44.2626 34.4304C44.1335 34.4304 44.0475 34.4304 44.0475 34.4304C31.3082 33.8709 30.0171 23.1975 29.974 23.1114V22.9392V4.13165H51.2778V3.18481H29.8449V0.0860786H54.3335V7.23038H33.0297V22.8962C33.1589 23.7139 34.493 30.9873 44.1335 31.4177C44.1335 31.4177 48.8247 31.5468 52.0956 28.4051C54.2905 26.2962 55.3664 23.1544 55.3664 19.1089H58.4652C58.4652 24.0582 57.0449 27.9316 54.2044 30.643C50.4171 34.3013 45.3816 34.5165 44.2196 34.5165L44.2626 34.4304Z" fill="white"/>
<path d="M51.1918 19.1519V19.5823C51.1918 22.1646 50.5032 24.1013 49.169 25.4354C47.1462 27.3721 44.2196 27.3291 44.2196 27.3291C37.9791 27.0709 37.2905 22.8532 37.2905 22.638C37.0753 21.3468 36.9032 17.3873 38.3664 15.5797H48.1361V12.481H36.9462V11.4481H49.1259V8.34937H33.8475V15.5367H34.8373C33.5892 18.6785 34.1487 22.5089 34.1918 23.0253C34.493 25.4354 36.9032 30.0835 44.0475 30.3848C44.0475 30.3848 44.1336 30.3848 44.2196 30.3848C45.0373 30.3848 48.5665 30.2127 51.2348 27.6734C53.2146 25.7797 54.2475 23.0253 54.2475 19.5823V19.1519H51.1487H51.1918Z" fill="white"/>
<path d="M44.1765 22.2076C45.0322 22.2076 45.7259 21.5139 45.7259 20.6582C45.7259 19.8025 45.0322 19.1089 44.1765 19.1089C43.3209 19.1089 42.6272 19.8025 42.6272 20.6582C42.6272 21.5139 43.3209 22.2076 44.1765 22.2076Z" fill="white"/>
<path d="M4.4095 47.0152H3.67785L1.22468 44.0025H1.99936C2.30062 44.0025 2.55885 44.0025 2.77404 43.8734C2.98923 43.7873 3.16138 43.6582 3.2905 43.5291C3.41961 43.4 3.54873 43.2278 3.59177 43.0557C3.63481 42.8835 3.67785 42.7114 3.67785 42.5392C3.67785 42.3671 3.67784 42.1949 3.59177 42.0228C3.54873 41.8506 3.41961 41.6785 3.2905 41.5494C3.16138 41.4202 2.98924 41.2911 2.81709 41.2051C2.6019 41.119 2.38669 41.0759 2.12847 41.0759H1.00949V46.9291H0.450001V40.5595H2.21455C2.51581 40.5595 2.81708 40.6025 3.07531 40.6886C3.33353 40.7747 3.54872 40.9038 3.72088 41.0759C3.89303 41.2481 4.02214 41.4633 4.15126 41.6785C4.23733 41.9367 4.28036 42.1519 4.28036 42.4532C4.28036 42.7544 4.23733 42.9266 4.15126 43.1418C4.06518 43.357 3.93608 43.5721 3.76393 43.7443C3.59178 43.9165 3.37658 44.0456 3.16139 44.1747C2.90316 44.3038 2.64492 44.3468 2.34366 44.3899L4.4095 46.9291V47.0152Z" fill="white" stroke="white" stroke-width="0.9" stroke-miterlimit="10"/>
<path d="M6.04492 40.9468C6.04492 41.0759 6.00189 41.162 5.91581 41.2911C5.82974 41.3772 5.7006 41.4202 5.57149 41.4202C5.44238 41.4202 5.35632 41.3772 5.27024 41.2911C5.18417 41.2051 5.14111 41.0759 5.14111 40.9468C5.14111 40.8177 5.18417 40.7316 5.27024 40.6456C5.35632 40.5595 5.48541 40.5164 5.57149 40.5164C5.65757 40.5164 5.7867 40.5595 5.91581 40.6456C6.00189 40.7316 6.04492 40.8177 6.04492 40.9468ZM5.82973 47.0152H5.27024V42.1519H5.82973V47.0152Z" fill="white" stroke="white" stroke-width="0.9" stroke-miterlimit="10"/>
<path d="M11.0373 46.5418C11.0373 46.843 10.9943 47.1443 10.8652 47.4456C10.7361 47.7038 10.607 47.962 10.3918 48.1342C10.1766 48.3494 9.96139 48.4785 9.7462 48.6076C9.48797 48.7367 9.22975 48.7797 8.97152 48.7797C8.71329 48.7797 8.54114 48.7797 8.32595 48.6937C8.11076 48.6506 7.93861 48.5646 7.76646 48.4354C7.59431 48.3063 7.42214 48.1772 7.29303 48.0051C7.16392 47.8329 7.03481 47.6608 6.94873 47.4456H7.50822C7.68037 47.7468 7.85252 47.962 8.15379 48.0911C8.41202 48.2203 8.67025 48.3063 8.97152 48.3063C9.27279 48.3063 9.4019 48.2633 9.61709 48.1772C9.83228 48.0911 9.9614 47.962 10.1336 47.7899C10.2627 47.6177 10.3918 47.4456 10.4778 47.2304C10.5639 47.0152 10.607 46.8 10.607 46.5848V45.8101C10.3918 46.0684 10.1766 46.2835 9.87531 46.4127C9.61708 46.5418 9.31582 46.5848 8.97152 46.5848C8.62722 46.5848 8.41202 46.5418 8.15379 46.4127C7.89556 46.2835 7.68038 46.1544 7.46519 45.9392C7.25 45.7241 7.1209 45.5089 6.99178 45.2506C6.86267 44.9924 6.81962 44.6911 6.81962 44.3899C6.81962 44.0886 6.86267 43.7873 6.99178 43.5291C7.1209 43.2709 7.25 43.0127 7.46519 42.8405C7.63734 42.6253 7.89556 42.4962 8.15379 42.3671C8.41202 42.238 8.67025 42.1949 8.97152 42.1949H11.1234V46.6278L11.0373 46.5418ZM10.5209 44.3468V42.6253H9.87531C9.70316 42.6253 9.53102 42.6253 9.35887 42.6253C9.18672 42.6253 9.0576 42.6253 8.97152 42.6253C8.75633 42.6253 8.54113 42.6684 8.36898 42.7544C8.15379 42.8405 8.0247 42.9696 7.85254 43.1418C7.72343 43.3139 7.5943 43.4861 7.50822 43.7013C7.42214 43.9164 7.37911 44.1316 7.37911 44.3468C7.37911 44.562 7.37911 44.7772 7.50822 44.9924C7.5943 45.2076 7.72343 45.3797 7.85254 45.5089C7.98166 45.638 8.15379 45.7671 8.36898 45.8532C8.58417 45.9392 8.75633 45.9823 8.97152 45.9823C9.18671 45.9823 9.40191 45.9823 9.57406 45.8532C9.74621 45.724 9.91835 45.638 10.0905 45.5089C10.2196 45.3797 10.3487 45.1646 10.4348 44.9924C10.5209 44.7772 10.5639 44.562 10.5639 44.3468H10.5209Z" fill="white" stroke="white" stroke-width="0.9" stroke-miterlimit="10"/>
<path d="M16.288 43.8734V46.9721H15.7715V43.8304C15.7715 43.6582 15.7715 43.4861 15.6424 43.3139C15.5133 43.1418 15.4703 43.0127 15.3411 42.8835C15.212 42.7544 15.0829 42.6683 14.9108 42.6253C14.7386 42.5392 14.5665 42.5392 14.3943 42.5392C14.2222 42.5392 14.007 42.5392 13.8348 42.6684C13.6627 42.7975 13.4905 42.8405 13.3184 42.9696C13.1462 43.0987 13.0171 43.2709 12.931 43.443C12.845 43.6152 12.8019 43.8304 12.8019 44.0456V46.9721H12.2855V40.5595H12.8019V42.8405C13.0171 42.5823 13.2323 42.3671 13.5335 42.238C13.8348 42.1089 14.1361 42.0228 14.4374 42.0228C14.7386 42.0228 14.9538 42.0658 15.169 42.1519C15.3842 42.238 15.5994 42.3671 15.7715 42.5392C15.9437 42.7114 16.0728 42.8835 16.2019 43.1418C16.288 43.357 16.331 43.6152 16.331 43.8734H16.288Z" fill="white" stroke="white" stroke-width="0.9" stroke-miterlimit="10"/>
<path d="M19.5158 47.0152H18.8703C18.6981 47.0152 18.526 47.0152 18.3968 46.9291C18.2677 46.843 18.1386 46.757 18.0095 46.6278C17.9234 46.4987 17.8374 46.3696 17.7513 46.1975C17.7082 46.0253 17.6652 45.8962 17.6652 45.724V42.6253H17.0627V42.1519H17.6652V40.8608H18.1817V42.1519H19.5158V42.6253H18.1817V45.681C18.1817 45.8101 18.1816 45.8962 18.2247 46.0253C18.2247 46.1114 18.3108 46.2405 18.3538 46.3266C18.3968 46.4127 18.4829 46.4987 18.569 46.5418C18.6551 46.5848 18.7842 46.6278 18.9133 46.6278H19.4728V47.0582L19.5158 47.0152Z" fill="white" stroke="white" stroke-width="0.9" stroke-miterlimit="10"/>
<path d="M26.1437 45.2506C26.1437 45.5089 26.1006 45.7241 26.0145 45.9392C25.9285 46.1544 25.7994 46.3696 25.6272 46.4987C25.4551 46.6709 25.2399 46.8 25.0247 46.8861C24.8095 46.9722 24.5513 47.0152 24.293 47.0152C24.0348 47.0152 23.8627 47.0152 23.6905 46.9291C23.4753 46.843 23.3032 46.757 23.1741 46.6278C23.0019 46.4987 22.8728 46.3696 22.7867 46.1975C22.6576 46.0253 22.5715 45.8532 22.5285 45.681H23.131C23.2171 45.8962 23.3462 46.1114 23.5614 46.2405C23.7766 46.4127 24.0348 46.4987 24.3361 46.4987C24.6374 46.4987 24.6804 46.4987 24.8525 46.4127C25.0247 46.3266 25.1538 46.2405 25.2829 46.1544C25.412 46.0253 25.4981 45.8962 25.5411 45.7671C25.6272 45.5949 25.6272 45.4658 25.6272 45.2506C25.6272 44.9494 25.5411 44.7342 25.412 44.519C25.2829 44.3038 25.0677 44.1747 24.8095 44.0886C24.8095 44.0886 24.7234 44.0886 24.6374 44.0456C24.5513 44.0025 24.4652 44.0456 24.3791 44.0025C24.293 43.9595 24.207 44.0025 24.1209 43.9595C24.0348 43.9165 23.9487 43.9595 23.9057 43.9165C23.4753 43.7873 23.1741 43.5721 22.9158 43.3139C22.7006 43.0127 22.5715 42.7114 22.5715 42.281C22.5715 41.8506 22.6146 41.8076 22.7006 41.6354C22.7867 41.4203 22.9158 41.2481 23.088 41.119C23.2601 40.9468 23.4323 40.8608 23.6475 40.7747C23.8627 40.6886 24.0779 40.6456 24.3361 40.6456C24.7234 40.6456 25.0247 40.7316 25.326 40.9468C25.6272 41.162 25.8424 41.4202 25.9715 41.7646H25.369C25.2829 41.5924 25.1108 41.4202 24.9386 41.3342C24.7664 41.2481 24.5513 41.162 24.3361 41.162C24.1209 41.162 24.0348 41.162 23.8627 41.2481C23.7335 41.2911 23.6044 41.3772 23.4753 41.5063C23.3892 41.5924 23.3032 41.7215 23.2171 41.8937C23.131 42.0658 23.131 42.1949 23.131 42.324C23.131 42.5823 23.2171 42.7975 23.3462 43.0127C23.4753 43.1848 23.6905 43.357 23.9918 43.443C24.0348 43.443 24.1209 43.443 24.207 43.4861C24.2931 43.5291 24.3791 43.4861 24.4652 43.5291C24.5513 43.5721 24.6373 43.5291 24.7234 43.5722C24.8095 43.6152 24.8956 43.5721 24.9386 43.6152C25.369 43.7443 25.6703 43.9595 25.8854 44.2608C26.1006 44.562 26.1867 44.9063 26.1867 45.3367L26.1437 45.2506Z" fill="white" stroke="white" stroke-width="0.9" stroke-miterlimit="10"/>
<path d="M31.9968 44.562C31.9968 44.9063 31.9108 45.2506 31.7817 45.5519C31.6525 45.8532 31.4804 46.1114 31.2222 46.3696C31.007 46.5848 30.7057 46.757 30.4044 46.9291C30.1032 47.0582 29.7589 47.1443 29.4146 47.1443C29.0703 47.1443 28.726 47.0582 28.4247 46.9291C28.1234 46.8 27.8652 46.6278 27.607 46.3696C27.3918 46.1544 27.2196 45.8532 27.0475 45.5519C26.9184 45.2506 26.8323 44.9063 26.8323 44.562C26.8323 44.2177 26.9184 43.8734 27.0475 43.5721C27.1766 43.2709 27.3487 43.0126 27.607 42.7544C27.8222 42.5392 28.0804 42.3671 28.4247 42.1949C28.726 42.0658 29.0703 41.9797 29.4146 41.9797C29.7589 41.9797 30.1032 42.0658 30.4044 42.1949C30.7057 42.324 30.9639 42.4962 31.2222 42.7544C31.4374 42.9696 31.6095 43.2709 31.7817 43.5721C31.9108 43.8734 31.9968 44.2177 31.9968 44.562ZM31.4804 44.562C31.4804 44.3038 31.4374 44.0025 31.3082 43.7873C31.2222 43.5291 31.05 43.3139 30.8779 43.1418C30.7057 42.9696 30.4905 42.7975 30.2323 42.7114C29.9741 42.6253 29.7158 42.5392 29.4576 42.5392C29.1994 42.5392 28.8981 42.5823 28.6829 42.7114C28.4247 42.7975 28.2095 42.9696 28.0373 43.1418C27.8652 43.3139 27.693 43.5291 27.607 43.7873C27.5209 44.0456 27.4348 44.3038 27.4348 44.562C27.4348 44.8202 27.4779 45.1215 27.607 45.3367C27.7361 45.5519 27.8652 45.8101 28.0373 45.9823C28.2095 46.1544 28.4247 46.3266 28.6829 46.4126C28.9411 46.4987 29.1994 46.5848 29.4576 46.5848C29.7158 46.5848 29.9741 46.5418 30.2323 46.4126C30.4905 46.2835 30.7057 46.1544 30.8779 45.9823C31.05 45.8101 31.2222 45.5949 31.3082 45.3367C31.3943 45.0785 31.4804 44.8202 31.4804 44.562Z" fill="white" stroke="white" stroke-width="0.9" stroke-miterlimit="10"/>
<path d="M33.5032 47.0152H32.9437V40.6025H33.5032V47.0152Z" fill="white" stroke="white" stroke-width="0.9" stroke-miterlimit="10"/>
<path d="M38.7107 47.0152H38.1943V46.2405C38.0222 46.4987 37.7639 46.7139 37.4627 46.8861C37.1614 47.0152 36.8601 47.1013 36.5158 47.1013C36.1715 47.1013 35.9994 47.0582 35.7842 46.9721C35.569 46.8861 35.3538 46.757 35.1817 46.5848C35.0095 46.4127 34.8804 46.1975 34.7513 45.9823C34.6652 45.7671 34.5791 45.5089 34.5791 45.2506V42.1519H35.0956V45.2937C35.0956 45.4658 35.0956 45.638 35.2247 45.8101C35.3108 45.9823 35.3968 46.1114 35.526 46.2405C35.6551 46.3696 35.7842 46.4557 35.9563 46.4987C36.1285 46.5848 36.3006 46.5848 36.4728 46.5848C36.6449 46.5848 36.8601 46.5848 37.0323 46.4557C37.2475 46.3696 37.4196 46.2835 37.5487 46.1114C37.7209 45.9823 37.85 45.8101 37.9361 45.638C38.0221 45.4658 38.1082 45.2506 38.1082 45.0354V42.1089H38.6247V46.9721L38.7107 47.0152Z" fill="white" stroke="white" stroke-width="0.9" stroke-miterlimit="10"/>
<path d="M42.0247 47.0152H41.3791C41.2069 47.0152 41.0348 47.0152 40.9057 46.9291C40.7766 46.843 40.6474 46.757 40.5183 46.6278C40.4322 46.4987 40.3462 46.3696 40.2601 46.1975C40.2171 46.0253 40.174 45.8962 40.174 45.724V42.6253H39.5715V42.1519H40.174V40.8608H40.6905V42.1519H42.0247V42.6253H40.6905V45.681C40.6905 45.8101 40.6905 45.8962 40.7335 46.0253C40.7335 46.1114 40.8196 46.2405 40.8626 46.3266C40.9057 46.4127 40.9917 46.4987 41.0778 46.5418C41.1639 46.5848 41.293 46.6278 41.4221 46.6278H41.9816V47.0582L42.0247 47.0152Z" fill="white" stroke="white" stroke-width="0.9" stroke-miterlimit="10"/>
<path d="M43.531 40.9468C43.531 41.0759 43.4879 41.162 43.4019 41.2911C43.3158 41.3772 43.1867 41.4202 43.0576 41.4202C42.9285 41.4202 42.8424 41.3772 42.7563 41.2911C42.6702 41.2051 42.6272 41.0759 42.6272 40.9468C42.6272 40.8177 42.6702 40.7316 42.7563 40.6456C42.8424 40.5595 42.9715 40.5164 43.0576 40.5164C43.1436 40.5164 43.2728 40.5595 43.4019 40.6456C43.4879 40.7316 43.531 40.8177 43.531 40.9468ZM43.3588 47.0152H42.7993V42.1519H43.3588V47.0152Z" fill="white" stroke="white" stroke-width="0.9" stroke-miterlimit="10"/>
<path d="M49.3842 44.562C49.3842 44.9063 49.2981 45.2506 49.169 45.5519C49.0399 45.8532 48.8677 46.1114 48.6095 46.3696C48.3943 46.5848 48.093 46.757 47.7918 46.9291C47.4905 47.0582 47.1462 47.1443 46.8019 47.1443C46.4576 47.1443 46.1133 47.0582 45.812 46.9291C45.5107 46.8 45.2525 46.6278 44.9943 46.3696C44.7791 46.1544 44.607 45.8532 44.4348 45.5519C44.3057 45.2506 44.2196 44.9063 44.2196 44.562C44.2196 44.2177 44.3057 43.8734 44.4348 43.5721C44.5639 43.2709 44.7361 43.0126 44.9943 42.7544C45.2095 42.5392 45.4677 42.3671 45.812 42.1949C46.1133 42.0658 46.4576 41.9797 46.8019 41.9797C47.1462 41.9797 47.4905 42.0658 47.7918 42.1949C48.093 42.324 48.3512 42.4962 48.6095 42.7544C48.8247 42.9696 48.9968 43.2709 49.169 43.5721C49.2981 43.8734 49.3842 44.2177 49.3842 44.562ZM48.8247 44.562C48.8247 44.3038 48.7816 44.0025 48.6525 43.7873C48.5664 43.5291 48.3943 43.3139 48.2221 43.1418C48.05 42.9696 47.8348 42.7975 47.5766 42.7114C47.3183 42.6253 47.0601 42.5392 46.8019 42.5392C46.5437 42.5392 46.2424 42.5823 46.0272 42.7114C45.769 42.7975 45.5538 42.9696 45.3816 43.1418C45.2095 43.3139 45.0373 43.5291 44.9512 43.7873C44.8652 44.0456 44.7791 44.3038 44.7791 44.562C44.7791 44.8202 44.8221 45.1215 44.9512 45.3367C45.0804 45.5519 45.2095 45.8101 45.3816 45.9823C45.5538 46.1544 45.769 46.3266 46.0272 46.4126C46.2854 46.4987 46.5437 46.5848 46.8019 46.5848C47.0601 46.5848 47.3183 46.5418 47.5766 46.4126C47.8348 46.2835 48.05 46.1544 48.2221 45.9823C48.3943 45.8101 48.5664 45.5949 48.6525 45.3367C48.7386 45.0785 48.8247 44.8202 48.8247 44.562Z" fill="white" stroke="white" stroke-width="0.9" stroke-miterlimit="10"/>
<path d="M54.3335 43.8734V46.9721H53.8171V43.8304C53.8171 43.6582 53.8171 43.4861 53.688 43.3139C53.6019 43.1418 53.5158 43.0127 53.3867 42.8835C53.2576 42.7544 53.1285 42.6683 52.9563 42.6253C52.7842 42.5392 52.612 42.5392 52.4399 42.5392C52.2677 42.5392 52.0525 42.5392 51.8804 42.6684C51.7082 42.7975 51.493 42.8405 51.3639 43.0127C51.1918 43.1418 51.0626 43.3139 50.9766 43.4861C50.8905 43.6582 50.8475 43.8734 50.8475 44.0886V47.0152H50.331V42.1519H50.8475V42.9266C51.0626 42.6684 51.2778 42.4532 51.5791 42.281C51.8373 42.1089 52.1816 42.0228 52.5259 42.0228C52.8703 42.0228 53.0424 42.0658 53.2576 42.1519C53.4728 42.238 53.688 42.3671 53.8601 42.5392C54.0323 42.7114 54.1614 42.9266 54.2475 43.1418C54.3335 43.357 54.3766 43.6152 54.3766 43.8734H54.3335Z" fill="white" stroke="white" stroke-width="0.9" stroke-miterlimit="10"/>
<path d="M58.5082 45.681C58.5082 45.8962 58.5082 46.0684 58.3791 46.2405C58.293 46.4127 58.1639 46.5418 58.0348 46.6709C57.9057 46.8 57.7335 46.8861 57.5183 46.9721C57.3031 47.0582 57.131 47.1013 56.8728 47.1013C56.6145 47.1013 56.4854 47.1013 56.3133 47.0152C56.1411 46.9722 55.969 46.8861 55.8399 46.8C55.7107 46.7139 55.5816 46.5848 55.4955 46.4557C55.4095 46.3266 55.3234 46.1975 55.2803 46.0253H55.8399C55.9259 46.1975 56.055 46.3696 56.2272 46.4557C56.3993 46.5848 56.6145 46.6278 56.8728 46.6278C57.131 46.6278 57.131 46.6278 57.2601 46.5418C57.3892 46.4557 57.5183 46.4127 57.6044 46.3696C57.6905 46.3266 57.7765 46.1975 57.8626 46.0683C57.9057 45.9392 57.9487 45.8101 57.9487 45.681C57.9487 45.4658 57.9057 45.2937 57.7766 45.1215C57.6475 44.9494 57.4753 44.8633 57.2171 44.7342C57.2171 44.7342 57.131 44.7342 57.0449 44.6911C56.9588 44.6481 56.8728 44.6481 56.7436 44.6051C56.6576 44.6051 56.5285 44.562 56.4424 44.519C56.3563 44.519 56.2702 44.4759 56.2272 44.4329C55.969 44.3468 55.7538 44.1747 55.5816 43.9595C55.4095 43.7443 55.3664 43.5291 55.3664 43.2709C55.3664 43.0127 55.3664 42.9266 55.4955 42.7975C55.5816 42.6253 55.6677 42.4962 55.7968 42.3671C55.9259 42.238 56.0981 42.1519 56.2702 42.1089C56.4424 42.0658 56.6576 42.0228 56.8728 42.0228C57.2171 42.0228 57.5183 42.1089 57.7766 42.281C58.0348 42.4532 58.2069 42.7114 58.293 42.9696H57.7335C57.6905 42.8405 57.5614 42.7114 57.3892 42.5823C57.2171 42.4962 57.0449 42.4532 56.8728 42.4532C56.7006 42.4532 56.6145 42.4532 56.5285 42.4962C56.3993 42.4962 56.3133 42.5823 56.2272 42.6684C56.1411 42.7544 56.055 42.8405 56.012 42.9266C55.969 43.0127 55.9259 43.1418 55.9259 43.2709C55.9259 43.4 55.969 43.5721 56.0551 43.7443C56.1411 43.8734 56.3133 44.0025 56.4854 44.0456C56.4854 44.0456 56.6145 44.0456 56.7006 44.1316C56.7867 44.2177 56.8728 44.1747 57.0019 44.2177C57.0879 44.2177 57.2171 44.2608 57.3031 44.3038C57.3892 44.3468 57.4753 44.3468 57.5183 44.3468C58.1639 44.6051 58.5082 45.0354 58.5082 45.638V45.681Z" fill="white" stroke="white" stroke-width="0.9" stroke-miterlimit="10"/>
</svg>
