<svg width="253" height="50" viewBox="0 0 253 50" fill="none" xmlns="http://www.w3.org/2000/svg">
<path d="M14.6955 34.4304C13.5335 34.4304 8.49806 34.2152 4.71072 30.557C1.91325 27.8456 0.449978 23.9721 0.449978 19.0228H3.54872C3.54872 23.1114 4.66768 26.2532 6.86262 28.362C10.1335 31.5038 14.7386 31.3747 14.7816 31.3747C24.4221 30.9443 25.7563 23.7139 25.8854 22.8532V3.09873H5.87275V0H28.9841V23.0683C28.9841 23.1544 27.65 33.8278 14.9107 34.3873C14.9107 34.3873 14.8246 34.3873 14.6955 34.3873V34.4304Z" fill="white"/>
<path d="M14.8677 30.5139C7.89554 30.5139 5.18415 25.0911 4.75377 22.2076C4.62466 21.4759 3.76388 15.1063 6.64742 11.7924C7.72337 10.5013 9.27275 9.85569 11.0373 9.85569H22.0981V7.48861H5.9158V4.38987H25.1968V19.4962C25.2398 20.1848 25.455 24.4456 22.7006 27.5443C20.893 29.524 18.2677 30.557 14.9107 30.557L14.8677 30.5139ZM10.9943 12.9544C10.0905 12.9544 9.44491 13.2127 8.92846 13.8152C7.29302 15.7089 7.5082 20.1848 7.76643 21.7772C7.8525 22.3367 8.8854 27.4582 14.8246 27.4582C20.7639 27.4582 19.1284 26.7696 20.2905 25.4785C22.3133 23.2405 22.012 19.7544 22.012 19.7544V19.5823V12.9544H10.9512H10.9943Z" fill="white"/>
<path d="M44.2626 34.4304C44.1335 34.4304 44.0475 34.4304 44.0475 34.4304C31.3082 33.8709 30.0171 23.1975 29.974 23.1114V22.9392V4.13165H51.2778V3.18481H29.8449V0.0860786H54.3335V7.23038H33.0297V22.8962C33.1589 23.7139 34.493 30.9873 44.1335 31.4177C44.1335 31.4177 48.8247 31.5468 52.0956 28.4051C54.2905 26.2962 55.3664 23.1544 55.3664 19.1089H58.4652C58.4652 24.0582 57.0449 27.9316 54.2044 30.643C50.4171 34.3013 45.3816 34.5165 44.2196 34.5165L44.2626 34.4304Z" fill="white"/>
<path d="M51.1918 19.1519V19.5823C51.1918 22.1646 50.5032 24.1013 49.169 25.4354C47.1462 27.3721 44.2196 27.3291 44.2196 27.3291C37.9791 27.0709 37.2905 22.8532 37.2905 22.638C37.0753 21.3468 36.9032 17.3873 38.3664 15.5797H48.1361V12.481H36.9462V11.4481H49.1259V8.34937H33.8475V15.5367H34.8373C33.5892 18.6785 34.1487 22.5089 34.1918 23.0253C34.493 25.4354 36.9032 30.0835 44.0475 30.3848C44.0475 30.3848 44.1336 30.3848 44.2196 30.3848C45.0373 30.3848 48.5665 30.2127 51.2348 27.6734C53.2146 25.7797 54.2475 23.0253 54.2475 19.5823V19.1519H51.1487H51.1918Z" fill="white"/>
<path d="M44.1765 22.2076C45.0322 22.2076 45.7259 21.5139 45.7259 20.6582C45.7259 19.8025 45.0322 19.1089 44.1765 19.1089C43.3209 19.1089 42.6272 19.8025 42.6272 20.6582C42.6272 21.5139 43.3209 22.2076 44.1765 22.2076Z" fill="white"/>
<path d="M4.4095 47.0152H3.67785L1.22468 44.0025H1.99936C2.30062 44.0025 2.55885 44.0025 2.77404 43.8734C2.98923 43.7873 3.16138 43.6582 3.2905 43.5291C3.41961 43.4 3.54873 43.2278 3.59177 43.0557C3.63481 42.8835 3.67785 42.7114 3.67785 42.5392C3.67785 42.3671 3.67784 42.1949 3.59177 42.0228C3.54873 41.8506 3.41961 41.6785 3.2905 41.5494C3.16138 41.4202 2.98924 41.2911 2.81709 41.2051C2.6019 41.119 2.38669 41.0759 2.12847 41.0759H1.00949V46.9291H0.450001V40.5595H2.21455C2.51581 40.5595 2.81708 40.6025 3.07531 40.6886C3.33353 40.7747 3.54872 40.9038 3.72088 41.0759C3.89303 41.2481 4.02214 41.4633 4.15126 41.6785C4.23733 41.9367 4.28036 42.1519 4.28036 42.4532C4.28036 42.7544 4.23733 42.9266 4.15126 43.1418C4.06518 43.357 3.93608 43.5721 3.76393 43.7443C3.59178 43.9165 3.37658 44.0456 3.16139 44.1747C2.90316 44.3038 2.64492 44.3468 2.34366 44.3899L4.4095 46.9291V47.0152Z" fill="white" stroke="white" stroke-width="0.9" stroke-miterlimit="10"/>
<path d="M6.04492 40.9468C6.04492 41.0759 6.00189 41.162 5.91581 41.2911C5.82974 41.3772 5.7006 41.4202 5.57149 41.4202C5.44238 41.4202 5.35632 41.3772 5.27024 41.2911C5.18417 41.2051 5.14111 41.0759 5.14111 40.9468C5.14111 40.8177 5.18417 40.7316 5.27024 40.6456C5.35632 40.5595 5.48541 40.5164 5.57149 40.5164C5.65757 40.5164 5.7867 40.5595 5.91581 40.6456C6.00189 40.7316 6.04492 40.8177 6.04492 40.9468ZM5.82973 47.0152H5.27024V42.1519H5.82973V47.0152Z" fill="white" stroke="white" stroke-width="0.9" stroke-miterlimit="10"/>
<path d="M11.0373 46.5418C11.0373 46.843 10.9943 47.1443 10.8652 47.4456C10.7361 47.7038 10.607 47.962 10.3918 48.1342C10.1766 48.3494 9.96139 48.4785 9.7462 48.6076C9.48797 48.7367 9.22975 48.7797 8.97152 48.7797C8.71329 48.7797 8.54114 48.7797 8.32595 48.6937C8.11076 48.6506 7.93861 48.5646 7.76646 48.4354C7.59431 48.3063 7.42214 48.1772 7.29303 48.0051C7.16392 47.8329 7.03481 47.6608 6.94873 47.4456H7.50822C7.68037 47.7468 7.85252 47.962 8.15379 48.0911C8.41202 48.2203 8.67025 48.3063 8.97152 48.3063C9.27279 48.3063 9.4019 48.2633 9.61709 48.1772C9.83228 48.0911 9.9614 47.962 10.1336 47.7899C10.2627 47.6177 10.3918 47.4456 10.4778 47.2304C10.5639 47.0152 10.607 46.8 10.607 46.5848V45.8101C10.3918 46.0684 10.1766 46.2835 9.87531 46.4127C9.61708 46.5418 9.31582 46.5848 8.97152 46.5848C8.62722 46.5848 8.41202 46.5418 8.15379 46.4127C7.89556 46.2835 7.68038 46.1544 7.46519 45.9392C7.25 45.7241 7.1209 45.5089 6.99178 45.2506C6.86267 44.9924 6.81962 44.6911 6.81962 44.3899C6.81962 44.0886 6.86267 43.7873 6.99178 43.5291C7.1209 43.2709 7.25 43.0127 7.46519 42.8405C7.63734 42.6253 7.89556 42.4962 8.15379 42.3671C8.41202 42.238 8.67025 42.1949 8.97152 42.1949H11.1234V46.6278L11.0373 46.5418ZM10.5209 44.3468V42.6253H9.87531C9.70316 42.6253 9.53102 42.6253 9.35887 42.6253C9.18672 42.6253 9.0576 42.6253 8.97152 42.6253C8.75633 42.6253 8.54113 42.6684 8.36898 42.7544C8.15379 42.8405 8.0247 42.9696 7.85254 43.1418C7.72343 43.3139 7.5943 43.4861 7.50822 43.7013C7.42214 43.9164 7.37911 44.1316 7.37911 44.3468C7.37911 44.562 7.37911 44.7772 7.50822 44.9924C7.5943 45.2076 7.72343 45.3797 7.85254 45.5089C7.98166 45.638 8.15379 45.7671 8.36898 45.8532C8.58417 45.9392 8.75633 45.9823 8.97152 45.9823C9.18671 45.9823 9.40191 45.9823 9.57406 45.8532C9.74621 45.724 9.91835 45.638 10.0905 45.5089C10.2196 45.3797 10.3487 45.1646 10.4348 44.9924C10.5209 44.7772 10.5639 44.562 10.5639 44.3468H10.5209Z" fill="white" stroke="white" stroke-width="0.9" stroke-miterlimit="10"/>
<path d="M16.288 43.8734V46.9721H15.7715V43.8304C15.7715 43.6582 15.7715 43.4861 15.6424 43.3139C15.5133 43.1418 15.4703 43.0127 15.3411 42.8835C15.212 42.7544 15.0829 42.6683 14.9108 42.6253C14.7386 42.5392 14.5665 42.5392 14.3943 42.5392C14.2222 42.5392 14.007 42.5392 13.8348 42.6684C13.6627 42.7975 13.4905 42.8405 13.3184 42.9696C13.1462 43.0987 13.0171 43.2709 12.931 43.443C12.845 43.6152 12.8019 43.8304 12.8019 44.0456V46.9721H12.2855V40.5595H12.8019V42.8405C13.0171 42.5823 13.2323 42.3671 13.5335 42.238C13.8348 42.1089 14.1361 42.0228 14.4374 42.0228C14.7386 42.0228 14.9538 42.0658 15.169 42.1519C15.3842 42.238 15.5994 42.3671 15.7715 42.5392C15.9437 42.7114 16.0728 42.8835 16.2019 43.1418C16.288 43.357 16.331 43.6152 16.331 43.8734H16.288Z" fill="white" stroke="white" stroke-width="0.9" stroke-miterlimit="10"/>
<path d="M19.5158 47.0152H18.8703C18.6981 47.0152 18.526 47.0152 18.3968 46.9291C18.2677 46.843 18.1386 46.757 18.0095 46.6278C17.9234 46.4987 17.8374 46.3696 17.7513 46.1975C17.7082 46.0253 17.6652 45.8962 17.6652 45.724V42.6253H17.0627V42.1519H17.6652V40.8608H18.1817V42.1519H19.5158V42.6253H18.1817V45.681C18.1817 45.8101 18.1816 45.8962 18.2247 46.0253C18.2247 46.1114 18.3108 46.2405 18.3538 46.3266C18.3968 46.4127 18.4829 46.4987 18.569 46.5418C18.6551 46.5848 18.7842 46.6278 18.9133 46.6278H19.4728V47.0582L19.5158 47.0152Z" fill="white" stroke="white" stroke-width="0.9" stroke-miterlimit="10"/>
<path d="M26.1437 45.2506C26.1437 45.5089 26.1006 45.7241 26.0145 45.9392C25.9285 46.1544 25.7994 46.3696 25.6272 46.4987C25.4551 46.6709 25.2399 46.8 25.0247 46.8861C24.8095 46.9722 24.5513 47.0152 24.293 47.0152C24.0348 47.0152 23.8627 47.0152 23.6905 46.9291C23.4753 46.843 23.3032 46.757 23.1741 46.6278C23.0019 46.4987 22.8728 46.3696 22.7867 46.1975C22.6576 46.0253 22.5715 45.8532 22.5285 45.681H23.131C23.2171 45.8962 23.3462 46.1114 23.5614 46.2405C23.7766 46.4127 24.0348 46.4987 24.3361 46.4987C24.6374 46.4987 24.6804 46.4987 24.8525 46.4127C25.0247 46.3266 25.1538 46.2405 25.2829 46.1544C25.412 46.0253 25.4981 45.8962 25.5411 45.7671C25.6272 45.5949 25.6272 45.4658 25.6272 45.2506C25.6272 44.9494 25.5411 44.7342 25.412 44.519C25.2829 44.3038 25.0677 44.1747 24.8095 44.0886C24.8095 44.0886 24.7234 44.0886 24.6374 44.0456C24.5513 44.0025 24.4652 44.0456 24.3791 44.0025C24.293 43.9595 24.207 44.0025 24.1209 43.9595C24.0348 43.9165 23.9487 43.9595 23.9057 43.9165C23.4753 43.7873 23.1741 43.5721 22.9158 43.3139C22.7006 43.0127 22.5715 42.7114 22.5715 42.281C22.5715 41.8506 22.6146 41.8076 22.7006 41.6354C22.7867 41.4203 22.9158 41.2481 23.088 41.119C23.2601 40.9468 23.4323 40.8608 23.6475 40.7747C23.8627 40.6886 24.0779 40.6456 24.3361 40.6456C24.7234 40.6456 25.0247 40.7316 25.326 40.9468C25.6272 41.162 25.8424 41.4202 25.9715 41.7646H25.369C25.2829 41.5924 25.1108 41.4202 24.9386 41.3342C24.7664 41.2481 24.5513 41.162 24.3361 41.162C24.1209 41.162 24.0348 41.162 23.8627 41.2481C23.7335 41.2911 23.6044 41.3772 23.4753 41.5063C23.3892 41.5924 23.3032 41.7215 23.2171 41.8937C23.131 42.0658 23.131 42.1949 23.131 42.324C23.131 42.5823 23.2171 42.7975 23.3462 43.0127C23.4753 43.1848 23.6905 43.357 23.9918 43.443C24.0348 43.443 24.1209 43.443 24.207 43.4861C24.2931 43.5291 24.3791 43.4861 24.4652 43.5291C24.5513 43.5721 24.6373 43.5291 24.7234 43.5722C24.8095 43.6152 24.8956 43.5721 24.9386 43.6152C25.369 43.7443 25.6703 43.9595 25.8854 44.2608C26.1006 44.562 26.1867 44.9063 26.1867 45.3367L26.1437 45.2506Z" fill="white" stroke="white" stroke-width="0.9" stroke-miterlimit="10"/>
<path d="M31.9968 44.562C31.9968 44.9063 31.9108 45.2506 31.7817 45.5519C31.6525 45.8532 31.4804 46.1114 31.2222 46.3696C31.007 46.5848 30.7057 46.757 30.4044 46.9291C30.1032 47.0582 29.7589 47.1443 29.4146 47.1443C29.0703 47.1443 28.726 47.0582 28.4247 46.9291C28.1234 46.8 27.8652 46.6278 27.607 46.3696C27.3918 46.1544 27.2196 45.8532 27.0475 45.5519C26.9184 45.2506 26.8323 44.9063 26.8323 44.562C26.8323 44.2177 26.9184 43.8734 27.0475 43.5721C27.1766 43.2709 27.3487 43.0126 27.607 42.7544C27.8222 42.5392 28.0804 42.3671 28.4247 42.1949C28.726 42.0658 29.0703 41.9797 29.4146 41.9797C29.7589 41.9797 30.1032 42.0658 30.4044 42.1949C30.7057 42.324 30.9639 42.4962 31.2222 42.7544C31.4374 42.9696 31.6095 43.2709 31.7817 43.5721C31.9108 43.8734 31.9968 44.2177 31.9968 44.562ZM31.4804 44.562C31.4804 44.3038 31.4374 44.0025 31.3082 43.7873C31.2222 43.5291 31.05 43.3139 30.8779 43.1418C30.7057 42.9696 30.4905 42.7975 30.2323 42.7114C29.9741 42.6253 29.7158 42.5392 29.4576 42.5392C29.1994 42.5392 28.8981 42.5823 28.6829 42.7114C28.4247 42.7975 28.2095 42.9696 28.0373 43.1418C27.8652 43.3139 27.693 43.5291 27.607 43.7873C27.5209 44.0456 27.4348 44.3038 27.4348 44.562C27.4348 44.8202 27.4779 45.1215 27.607 45.3367C27.7361 45.5519 27.8652 45.8101 28.0373 45.9823C28.2095 46.1544 28.4247 46.3266 28.6829 46.4126C28.9411 46.4987 29.1994 46.5848 29.4576 46.5848C29.7158 46.5848 29.9741 46.5418 30.2323 46.4126C30.4905 46.2835 30.7057 46.1544 30.8779 45.9823C31.05 45.8101 31.2222 45.5949 31.3082 45.3367C31.3943 45.0785 31.4804 44.8202 31.4804 44.562Z" fill="white" stroke="white" stroke-width="0.9" stroke-miterlimit="10"/>
<path d="M33.5032 47.0152H32.9437V40.6025H33.5032V47.0152Z" fill="white" stroke="white" stroke-width="0.9" stroke-miterlimit="10"/>
<path d="M38.7107 47.0152H38.1943V46.2405C38.0222 46.4987 37.7639 46.7139 37.4627 46.8861C37.1614 47.0152 36.8601 47.1013 36.5158 47.1013C36.1715 47.1013 35.9994 47.0582 35.7842 46.9721C35.569 46.8861 35.3538 46.757 35.1817 46.5848C35.0095 46.4127 34.8804 46.1975 34.7513 45.9823C34.6652 45.7671 34.5791 45.5089 34.5791 45.2506V42.1519H35.0956V45.2937C35.0956 45.4658 35.0956 45.638 35.2247 45.8101C35.3108 45.9823 35.3968 46.1114 35.526 46.2405C35.6551 46.3696 35.7842 46.4557 35.9563 46.4987C36.1285 46.5848 36.3006 46.5848 36.4728 46.5848C36.6449 46.5848 36.8601 46.5848 37.0323 46.4557C37.2475 46.3696 37.4196 46.2835 37.5487 46.1114C37.7209 45.9823 37.85 45.8101 37.9361 45.638C38.0221 45.4658 38.1082 45.2506 38.1082 45.0354V42.1089H38.6247V46.9721L38.7107 47.0152Z" fill="white" stroke="white" stroke-width="0.9" stroke-miterlimit="10"/>
<path d="M42.0247 47.0152H41.3791C41.2069 47.0152 41.0348 47.0152 40.9057 46.9291C40.7766 46.843 40.6474 46.757 40.5183 46.6278C40.4322 46.4987 40.3462 46.3696 40.2601 46.1975C40.2171 46.0253 40.174 45.8962 40.174 45.724V42.6253H39.5715V42.1519H40.174V40.8608H40.6905V42.1519H42.0247V42.6253H40.6905V45.681C40.6905 45.8101 40.6905 45.8962 40.7335 46.0253C40.7335 46.1114 40.8196 46.2405 40.8626 46.3266C40.9057 46.4127 40.9917 46.4987 41.0778 46.5418C41.1639 46.5848 41.293 46.6278 41.4221 46.6278H41.9816V47.0582L42.0247 47.0152Z" fill="white" stroke="white" stroke-width="0.9" stroke-miterlimit="10"/>
<path d="M43.531 40.9468C43.531 41.0759 43.4879 41.162 43.4019 41.2911C43.3158 41.3772 43.1867 41.4202 43.0576 41.4202C42.9285 41.4202 42.8424 41.3772 42.7563 41.2911C42.6702 41.2051 42.6272 41.0759 42.6272 40.9468C42.6272 40.8177 42.6702 40.7316 42.7563 40.6456C42.8424 40.5595 42.9715 40.5164 43.0576 40.5164C43.1436 40.5164 43.2728 40.5595 43.4019 40.6456C43.4879 40.7316 43.531 40.8177 43.531 40.9468ZM43.3588 47.0152H42.7993V42.1519H43.3588V47.0152Z" fill="white" stroke="white" stroke-width="0.9" stroke-miterlimit="10"/>
<path d="M49.3842 44.562C49.3842 44.9063 49.2981 45.2506 49.169 45.5519C49.0399 45.8532 48.8677 46.1114 48.6095 46.3696C48.3943 46.5848 48.093 46.757 47.7918 46.9291C47.4905 47.0582 47.1462 47.1443 46.8019 47.1443C46.4576 47.1443 46.1133 47.0582 45.812 46.9291C45.5107 46.8 45.2525 46.6278 44.9943 46.3696C44.7791 46.1544 44.607 45.8532 44.4348 45.5519C44.3057 45.2506 44.2196 44.9063 44.2196 44.562C44.2196 44.2177 44.3057 43.8734 44.4348 43.5721C44.5639 43.2709 44.7361 43.0126 44.9943 42.7544C45.2095 42.5392 45.4677 42.3671 45.812 42.1949C46.1133 42.0658 46.4576 41.9797 46.8019 41.9797C47.1462 41.9797 47.4905 42.0658 47.7918 42.1949C48.093 42.324 48.3512 42.4962 48.6095 42.7544C48.8247 42.9696 48.9968 43.2709 49.169 43.5721C49.2981 43.8734 49.3842 44.2177 49.3842 44.562ZM48.8247 44.562C48.8247 44.3038 48.7816 44.0025 48.6525 43.7873C48.5664 43.5291 48.3943 43.3139 48.2221 43.1418C48.05 42.9696 47.8348 42.7975 47.5766 42.7114C47.3183 42.6253 47.0601 42.5392 46.8019 42.5392C46.5437 42.5392 46.2424 42.5823 46.0272 42.7114C45.769 42.7975 45.5538 42.9696 45.3816 43.1418C45.2095 43.3139 45.0373 43.5291 44.9512 43.7873C44.8652 44.0456 44.7791 44.3038 44.7791 44.562C44.7791 44.8202 44.8221 45.1215 44.9512 45.3367C45.0804 45.5519 45.2095 45.8101 45.3816 45.9823C45.5538 46.1544 45.769 46.3266 46.0272 46.4126C46.2854 46.4987 46.5437 46.5848 46.8019 46.5848C47.0601 46.5848 47.3183 46.5418 47.5766 46.4126C47.8348 46.2835 48.05 46.1544 48.2221 45.9823C48.3943 45.8101 48.5664 45.5949 48.6525 45.3367C48.7386 45.0785 48.8247 44.8202 48.8247 44.562Z" fill="white" stroke="white" stroke-width="0.9" stroke-miterlimit="10"/>
<path d="M54.3335 43.8734V46.9721H53.8171V43.8304C53.8171 43.6582 53.8171 43.4861 53.688 43.3139C53.6019 43.1418 53.5158 43.0127 53.3867 42.8835C53.2576 42.7544 53.1285 42.6683 52.9563 42.6253C52.7842 42.5392 52.612 42.5392 52.4399 42.5392C52.2677 42.5392 52.0525 42.5392 51.8804 42.6684C51.7082 42.7975 51.493 42.8405 51.3639 43.0127C51.1918 43.1418 51.0626 43.3139 50.9766 43.4861C50.8905 43.6582 50.8475 43.8734 50.8475 44.0886V47.0152H50.331V42.1519H50.8475V42.9266C51.0626 42.6684 51.2778 42.4532 51.5791 42.281C51.8373 42.1089 52.1816 42.0228 52.5259 42.0228C52.8703 42.0228 53.0424 42.0658 53.2576 42.1519C53.4728 42.238 53.688 42.3671 53.8601 42.5392C54.0323 42.7114 54.1614 42.9266 54.2475 43.1418C54.3335 43.357 54.3766 43.6152 54.3766 43.8734H54.3335Z" fill="white" stroke="white" stroke-width="0.9" stroke-miterlimit="10"/>
<path d="M58.5082 45.681C58.5082 45.8962 58.5082 46.0684 58.3791 46.2405C58.293 46.4127 58.1639 46.5418 58.0348 46.6709C57.9057 46.8 57.7335 46.8861 57.5183 46.9721C57.3031 47.0582 57.131 47.1013 56.8728 47.1013C56.6145 47.1013 56.4854 47.1013 56.3133 47.0152C56.1411 46.9722 55.969 46.8861 55.8399 46.8C55.7107 46.7139 55.5816 46.5848 55.4955 46.4557C55.4095 46.3266 55.3234 46.1975 55.2803 46.0253H55.8399C55.9259 46.1975 56.055 46.3696 56.2272 46.4557C56.3993 46.5848 56.6145 46.6278 56.8728 46.6278C57.131 46.6278 57.131 46.6278 57.2601 46.5418C57.3892 46.4557 57.5183 46.4127 57.6044 46.3696C57.6905 46.3266 57.7765 46.1975 57.8626 46.0683C57.9057 45.9392 57.9487 45.8101 57.9487 45.681C57.9487 45.4658 57.9057 45.2937 57.7766 45.1215C57.6475 44.9494 57.4753 44.8633 57.2171 44.7342C57.2171 44.7342 57.131 44.7342 57.0449 44.6911C56.9588 44.6481 56.8728 44.6481 56.7436 44.6051C56.6576 44.6051 56.5285 44.562 56.4424 44.519C56.3563 44.519 56.2702 44.4759 56.2272 44.4329C55.969 44.3468 55.7538 44.1747 55.5816 43.9595C55.4095 43.7443 55.3664 43.5291 55.3664 43.2709C55.3664 43.0127 55.3664 42.9266 55.4955 42.7975C55.5816 42.6253 55.6677 42.4962 55.7968 42.3671C55.9259 42.238 56.0981 42.1519 56.2702 42.1089C56.4424 42.0658 56.6576 42.0228 56.8728 42.0228C57.2171 42.0228 57.5183 42.1089 57.7766 42.281C58.0348 42.4532 58.2069 42.7114 58.293 42.9696H57.7335C57.6905 42.8405 57.5614 42.7114 57.3892 42.5823C57.2171 42.4962 57.0449 42.4532 56.8728 42.4532C56.7006 42.4532 56.6145 42.4532 56.5285 42.4962C56.3993 42.4962 56.3133 42.5823 56.2272 42.6684C56.1411 42.7544 56.055 42.8405 56.012 42.9266C55.969 43.0127 55.9259 43.1418 55.9259 43.2709C55.9259 43.4 55.969 43.5721 56.0551 43.7443C56.1411 43.8734 56.3133 44.0025 56.4854 44.0456C56.4854 44.0456 56.6145 44.0456 56.7006 44.1316C56.7867 44.2177 56.8728 44.1747 57.0019 44.2177C57.0879 44.2177 57.2171 44.2608 57.3031 44.3038C57.3892 44.3468 57.4753 44.3468 57.5183 44.3468C58.1639 44.6051 58.5082 45.0354 58.5082 45.638V45.681Z" fill="white" stroke="white" stroke-width="0.9" stroke-miterlimit="10"/>
<path d="M76.5538 18.2962V20.7494H74.7892C74.3589 20.7494 74.0146 20.7063 73.7133 20.5772C73.412 20.4481 73.1968 20.319 73.0247 20.1038C72.8525 19.9316 72.7234 19.6734 72.6373 19.4582C72.5513 19.243 72.5082 18.9848 72.5082 18.7266C72.5082 18.4683 72.5513 18.081 72.6804 17.7797C72.7664 17.4785 72.9386 17.2202 73.1107 17.0051C73.2829 16.7899 73.5411 16.6177 73.7994 16.4886C74.0576 16.3595 74.3589 16.3164 74.6601 16.3164C74.9614 16.3164 75.2196 16.3595 75.4348 16.4456C75.65 16.5316 75.8652 16.7038 76.0373 16.8759C76.2095 17.0481 76.3386 17.2633 76.4247 17.5215C76.5108 17.7797 76.5538 18.038 76.5538 18.3392V18.2962ZM74.7462 19.9316H75.8221V18.6835C75.8221 18.1671 75.693 17.7797 75.4778 17.5215C75.2626 17.2633 74.9614 17.0911 74.531 17.0911C74.1006 17.0911 74.1867 17.0911 74.0576 17.1772C73.8854 17.2633 73.7563 17.3494 73.6272 17.4785C73.4981 17.6076 73.412 17.7367 73.3259 17.9089C73.2399 18.081 73.1968 18.2962 73.1968 18.5114C73.1968 18.7266 73.1968 18.9848 73.3259 19.157C73.412 19.3291 73.5411 19.5013 73.6702 19.5873C73.7994 19.7165 73.9715 19.8025 74.1437 19.8456C74.3158 19.8886 74.531 19.9316 74.7032 19.9316H74.7462Z" fill="white" stroke="white" stroke-width="0.7" stroke-miterlimit="10"/>
<path d="M81.5893 20.7494H77.7589V19.9316H80.9007V18.5114C80.9007 18.2101 80.9007 17.9519 80.7716 17.7797C80.6855 17.6076 80.5994 17.4354 80.4272 17.3494C80.2981 17.2633 80.0829 17.1772 79.9108 17.1342C79.6956 17.1342 79.4804 17.0911 79.2222 17.0911H78.4045V16.3164H79.4804C79.7386 16.3164 79.9969 16.3164 80.2551 16.4025C80.5133 16.4456 80.7285 16.5747 80.9437 16.7468C81.1589 16.919 81.288 17.1342 81.4171 17.3924C81.5462 17.6506 81.5893 18.038 81.5893 18.4683V20.8354V20.7494Z" fill="white" stroke="white" stroke-width="0.7" stroke-miterlimit="10"/>
<path d="M88.5184 13.0456V20.7494H82.7082V19.9316H85.0753V15.1975H85.7639V19.9316H87.8298V13.0456H88.5614H88.5184Z" fill="white" stroke="white" stroke-width="0.7" stroke-miterlimit="10"/>
<path d="M93.5108 20.7494H92.4349C92.0045 20.7494 91.6602 20.7063 91.3589 20.5772C91.0576 20.4481 90.8425 20.319 90.6703 20.1038C90.4982 19.9316 90.369 19.6734 90.283 19.4582C90.1969 19.243 90.1539 18.9848 90.1539 18.7266C90.1539 18.4683 90.1969 18.081 90.326 17.7797C90.4121 17.4785 90.5842 17.2202 90.7564 17.0051C90.9285 16.7899 91.1868 16.6177 91.445 16.4886C91.7032 16.3595 92.0045 16.3164 92.3057 16.3164C92.607 16.3164 92.8652 16.3595 93.0804 16.4456C93.2956 16.5316 93.5108 16.7038 93.683 16.8759C93.8551 17.0481 93.9842 17.2633 94.0703 17.5215C94.1564 17.7797 94.1994 18.038 94.1994 18.3392V20.8785C94.1994 21.3089 94.1133 21.6962 93.9842 21.9975C93.8551 22.2987 93.683 22.557 93.4247 22.7291C93.1665 22.9013 92.9083 23.0734 92.564 23.1595C92.2197 23.2456 91.8754 23.2886 91.488 23.2886C91.1007 23.2886 91.2298 23.2886 91.0577 23.2886C90.9285 23.2886 90.7564 23.2886 90.5842 23.2886L90.6703 22.5139C90.8425 22.5139 90.9716 22.5139 91.1007 22.5139C91.2298 22.5139 91.3589 22.5139 91.5311 22.5139C91.7893 22.5139 92.0475 22.5139 92.2627 22.4278C92.4779 22.3848 92.6931 22.2987 92.8652 22.1696C93.0374 22.0405 93.1665 21.8684 93.2956 21.6532C93.3817 21.438 93.4678 21.1367 93.4678 20.7924L93.5108 20.7494ZM92.3918 19.9316H93.4678V18.6835C93.4678 18.1671 93.3387 17.7797 93.1235 17.5215C92.9083 17.2633 92.607 17.0911 92.1766 17.0911C91.7463 17.0911 91.8323 17.0911 91.6602 17.1772C91.488 17.2633 91.3589 17.3494 91.2298 17.4785C91.1007 17.6076 91.0146 17.7367 90.9285 17.9089C90.8425 18.081 90.7994 18.2962 90.7994 18.5114C90.7994 18.7266 90.8425 18.9848 90.9285 19.157C91.0146 19.3291 91.1437 19.5013 91.2728 19.5873C91.402 19.7165 91.5741 19.8025 91.7463 19.8456C91.9184 19.8886 92.1336 19.9316 92.3488 19.9316H92.3918Z" fill="white" stroke="white" stroke-width="0.7" stroke-miterlimit="10"/>
<path d="M96.8247 10.2481V10.5924C96.7386 10.5924 96.6956 10.5924 96.6526 10.5924H96.5665C96.3943 10.5924 96.2222 10.5924 96.0931 10.7215C95.964 10.8076 95.9209 10.9367 95.9209 11.1089C95.9209 11.281 96.007 11.4101 96.1361 11.5823C96.2652 11.7114 96.5235 11.7975 96.8678 11.7975V12.1418H95.3614V11.7975H96.007C95.8779 11.6683 95.7488 11.5392 95.7057 11.4101C95.6627 11.281 95.6197 11.1519 95.6197 11.0658C95.6197 10.8506 95.7057 10.6354 95.8348 10.5063C96.007 10.3342 96.2222 10.2911 96.4804 10.2911H96.6095C96.6526 10.2911 96.7386 10.2911 96.7817 10.2911L96.8247 10.2481ZM95.8348 20.7494H96.5235V13.0456H95.8348V20.7494Z" fill="white" stroke="white" stroke-width="0.7" stroke-miterlimit="10"/>
<path d="M101.43 20.7494H100.354C99.9235 20.7494 99.5792 20.7063 99.2779 20.5772C98.9767 20.4481 98.7615 20.319 98.5893 20.1038C98.4172 19.9316 98.2881 19.6734 98.202 19.4582C98.1159 19.243 98.0729 18.9848 98.0729 18.7266C98.0729 18.4683 98.1159 18.081 98.245 17.7797C98.3311 17.4785 98.5033 17.2202 98.6754 17.0051C98.8476 16.7899 99.1058 16.6177 99.364 16.4886C99.6222 16.3595 99.9235 16.3164 100.225 16.3164C100.526 16.3164 100.784 16.3595 100.999 16.4456C101.215 16.5316 101.43 16.7038 101.602 16.8759C101.774 17.0481 101.903 17.2633 101.989 17.5215C102.075 17.7797 102.118 18.038 102.118 18.3392V20.8785C102.118 21.3089 102.032 21.6962 101.903 21.9975C101.774 22.2987 101.602 22.557 101.344 22.7291C101.086 22.9013 100.827 23.0734 100.483 23.1595C100.139 23.2456 99.7944 23.2886 99.4071 23.2886C99.0197 23.2886 99.1488 23.2886 98.9767 23.2886C98.8476 23.2886 98.6754 23.2886 98.5033 23.2886L98.5893 22.5139C98.7615 22.5139 98.8906 22.5139 99.0197 22.5139C99.1488 22.5139 99.2779 22.5139 99.4501 22.5139C99.7083 22.5139 99.9665 22.5139 100.182 22.4278C100.397 22.3848 100.612 22.2987 100.784 22.1696C100.956 22.0405 101.086 21.8684 101.215 21.6532C101.301 21.438 101.387 21.1367 101.387 20.7924L101.43 20.7494ZM100.354 19.9316H101.43V18.6835C101.43 18.1671 101.301 17.7797 101.086 17.5215C100.87 17.2633 100.569 17.0911 100.139 17.0911C99.7083 17.0911 99.7944 17.0911 99.6222 17.1772C99.4501 17.2633 99.321 17.3494 99.1919 17.4785C99.0627 17.6076 98.9767 17.7367 98.8906 17.9089C98.8045 18.081 98.7615 18.2962 98.7615 18.5114C98.7615 18.7266 98.8045 18.9848 98.8906 19.157C98.9767 19.3291 99.1058 19.5013 99.2349 19.5873C99.364 19.7165 99.5362 19.8025 99.7083 19.8456C99.8805 19.8886 100.096 19.9316 100.311 19.9316H100.354Z" fill="white" stroke="white" stroke-width="0.7" stroke-miterlimit="10"/>
<path d="M112.448 19.9316H112.663C112.792 19.9316 112.835 19.9747 112.835 20.1038V20.5342C112.835 20.7063 112.792 20.7494 112.663 20.7494H112.491C112.361 20.7494 112.232 20.7494 112.146 20.7494C112.017 20.7494 111.931 20.7494 111.802 20.6633C111.716 20.6633 111.587 20.5772 111.501 20.4911C111.415 20.4051 111.329 20.2759 111.242 20.1468H111.113C111.113 20.6202 111.027 21.0506 110.898 21.438C110.769 21.8253 110.554 22.1266 110.296 22.3848C110.037 22.643 109.736 22.8582 109.349 22.9873C109.005 23.1164 108.574 23.2025 108.144 23.2025C107.713 23.2025 107.111 23.1165 106.723 22.9443C106.336 22.7721 106.035 22.557 105.82 22.2987C105.604 22.0405 105.432 21.7392 105.346 21.438C105.26 21.1367 105.217 20.7924 105.217 20.4911C105.217 20.1899 105.217 19.8456 105.346 19.5443C105.432 19.243 105.561 18.9418 105.734 18.6835C105.82 18.6835 105.863 18.7266 105.906 18.7696C105.906 18.7696 105.992 18.8127 106.035 18.8557C106.078 18.8557 106.164 18.9418 106.207 18.9418C106.25 18.9418 106.293 18.9848 106.379 19.0278C106.25 19.243 106.121 19.5013 106.078 19.7595C106.035 20.0177 105.992 20.2759 105.992 20.4911C105.992 20.7063 105.992 20.8785 106.078 21.0937C106.164 21.3089 106.25 21.524 106.422 21.6962C106.594 21.8683 106.81 22.0405 107.111 22.1696C107.412 22.2987 107.756 22.3418 108.23 22.3418C108.703 22.3418 108.789 22.3418 109.048 22.2126C109.306 22.1266 109.564 21.9975 109.779 21.8253C109.994 21.6532 110.167 21.438 110.296 21.1797C110.425 20.9215 110.468 20.6202 110.468 20.2329V13.0025H111.156V18.5544C111.156 19.0278 111.286 19.3721 111.501 19.5443C111.716 19.7164 112.06 19.8456 112.491 19.8456L112.448 19.9316Z" fill="white" stroke="white" stroke-width="0.7" stroke-miterlimit="10"/>
<path d="M114.944 20.7494H112.534C112.404 20.7494 112.361 20.7063 112.361 20.5772V20.1468C112.361 19.9747 112.404 19.8886 112.534 19.8886H114.212V16.6608H114.944V20.7063V20.7494ZM115.46 12.7873L115.374 13.2608C115.331 13.2608 115.288 13.2608 115.202 13.2608C115.116 13.2608 115.073 13.2608 115.03 13.2608C114.772 13.2608 114.599 13.3038 114.427 13.3899C114.255 13.4759 114.169 13.6481 114.169 13.8633C114.169 14.0785 114.169 14.0785 114.255 14.1645C114.298 14.2506 114.384 14.3797 114.47 14.4228C114.556 14.5089 114.685 14.5519 114.858 14.638C114.987 14.681 115.202 14.724 115.374 14.724H115.546V15.2405H113.437V14.724H114.255C114.083 14.5519 113.954 14.4228 113.911 14.2506C113.868 14.0785 113.825 13.9063 113.825 13.7772C113.825 13.519 113.911 13.2608 114.126 13.0456C114.341 12.8304 114.599 12.7443 114.987 12.7443C115.374 12.7443 115.288 12.7443 115.417 12.7443L115.46 12.7873Z" fill="white" stroke="white" stroke-width="0.7" stroke-miterlimit="10"/>
<path d="M116.708 13.0456H117.397V20.7494H116.708V13.0456Z" fill="white" stroke="white" stroke-width="0.7" stroke-miterlimit="10"/>
<path d="M123.766 19.9316H124.025C124.154 19.9316 124.197 19.9747 124.197 20.1038V20.5342C124.197 20.7063 124.154 20.7494 124.025 20.7494H123.766C123.637 20.7494 123.508 20.7494 123.379 20.7494C123.25 20.7494 123.121 20.6633 123.035 20.6202C122.906 20.5772 122.82 20.4481 122.734 20.362C122.647 20.2329 122.604 20.1038 122.561 19.8886H122.432C122.432 20.0607 122.303 20.1899 122.217 20.2759C122.131 20.4051 122.045 20.4911 121.916 20.5342C121.787 20.5772 121.658 20.6633 121.528 20.7063C121.399 20.7063 121.27 20.7494 121.141 20.7494H118.731V19.9316H121.055C121.356 19.9316 121.528 19.8456 121.658 19.7164C121.744 19.5873 121.83 19.3721 121.83 19.1139C121.83 18.8557 121.83 18.4683 121.83 18.2101C121.83 17.9519 121.744 17.7367 121.615 17.5645C121.529 17.3924 121.356 17.2633 121.141 17.1772C120.926 17.0911 120.625 17.0481 120.237 17.0481H119.463V16.2734H120.539C120.926 16.2734 121.27 16.3164 121.528 16.4456C121.787 16.5747 122.002 16.7038 122.174 16.919C122.346 17.1342 122.432 17.3494 122.518 17.6076C122.604 17.8658 122.604 18.1671 122.604 18.5114C122.604 18.9848 122.691 19.3721 122.906 19.5873C123.121 19.8025 123.465 19.9316 123.939 19.9316H123.766Z" fill="white" stroke="white" stroke-width="0.7" stroke-miterlimit="10"/>
<path d="M126.693 20.7494H123.853C123.724 20.7494 123.68 20.7063 123.68 20.5772V20.1468C123.68 19.9747 123.724 19.8886 123.853 19.8886H127.511C127.425 19.7595 127.296 19.5443 127.253 19.3291C127.21 19.1139 127.124 18.7696 127.037 18.3392C126.994 17.8658 126.865 17.5215 126.65 17.3494C126.435 17.1772 126.177 17.0481 125.789 17.0481C125.402 17.0481 125.488 17.0481 125.273 17.0911C125.058 17.0911 124.886 17.1772 124.713 17.2633L124.498 16.4886C124.67 16.4456 124.929 16.3595 125.187 16.3164C125.445 16.2734 125.746 16.2304 126.005 16.2304C126.263 16.2304 126.564 16.2734 126.779 16.4025C126.994 16.5316 127.167 16.6608 127.296 16.8329C127.425 17.0051 127.511 17.2202 127.597 17.4354C127.64 17.6506 127.683 17.8658 127.726 18.081C127.726 18.3392 127.769 18.5544 127.812 18.7696C127.855 18.9848 127.941 19.157 128.027 19.3291C128.113 19.5013 128.242 19.6304 128.372 19.7165C128.501 19.8025 128.716 19.8456 128.931 19.8456H129.06C129.189 19.8456 129.232 19.8886 129.232 20.0177V20.4481C129.232 20.6202 129.189 20.6633 129.06 20.6633H128.845C128.544 20.6633 128.286 20.6202 128.07 20.4911C127.855 20.362 127.64 20.1899 127.425 19.9316C127.253 20.2329 127.08 20.4481 126.951 20.5342C126.822 20.6202 126.693 20.6633 126.564 20.6633L126.693 20.7494ZM125.703 22.5139C125.703 22.3848 125.703 22.2557 125.832 22.1696C125.918 22.0835 126.005 22.0405 126.134 22.0405C126.263 22.0405 126.349 22.0835 126.435 22.1696C126.521 22.2557 126.564 22.3848 126.564 22.5139C126.564 22.643 126.564 22.7721 126.435 22.8582C126.349 22.9443 126.263 22.9873 126.134 22.9873C126.005 22.9873 125.918 22.9443 125.832 22.8582C125.746 22.7721 125.703 22.643 125.703 22.5139Z" fill="white" stroke="white" stroke-width="0.7" stroke-miterlimit="10"/>
<path d="M131.083 20.7494H128.888C128.759 20.7494 128.716 20.7063 128.716 20.5772V20.1468C128.716 19.9747 128.759 19.8886 128.888 19.8886H130.351V13.0025H131.04V20.7063L131.083 20.7494Z" fill="white" stroke="white" stroke-width="0.7" stroke-miterlimit="10"/>
<path d="M132.891 13.0456H133.579V20.7494H132.891V13.0456Z" fill="white" stroke="white" stroke-width="0.7" stroke-miterlimit="10"/>
<path d="M141.584 19.9316H142.832C142.961 19.9316 143.004 19.9747 143.004 20.1038V20.5342C143.004 20.7063 142.961 20.7494 142.832 20.7494H141.584C141.584 21.1797 141.498 21.5671 141.369 21.9114C141.24 22.2127 141.068 22.4709 140.81 22.6861C140.551 22.9013 140.293 23.0304 139.992 23.1164C139.691 23.2025 139.303 23.2456 138.916 23.2456C138.529 23.2456 138.615 23.2456 138.485 23.2456C138.356 23.2456 138.184 23.2456 138.055 23.2456C138.055 23.1595 138.055 23.1164 138.055 23.0734C138.055 23.0304 138.055 22.9443 138.055 22.9013V22.6861C138.055 22.6 138.055 22.557 138.055 22.4709C138.227 22.4709 138.356 22.4709 138.485 22.4709C138.615 22.4709 138.787 22.4709 138.916 22.4709C139.174 22.4709 139.432 22.4709 139.648 22.3848C139.863 22.2987 140.078 22.2557 140.25 22.1266C140.422 21.9975 140.551 21.8253 140.68 21.6101C140.766 21.3949 140.853 21.0937 140.853 20.7494H139.777C139.346 20.7494 139.002 20.7063 138.701 20.5772C138.399 20.4481 138.184 20.319 138.012 20.1038C137.84 19.9316 137.711 19.6734 137.625 19.4582C137.539 19.243 137.496 18.9848 137.496 18.7266C137.496 18.4683 137.539 18.081 137.668 17.7797C137.754 17.4785 137.926 17.2202 138.098 17.0051C138.27 16.7899 138.529 16.6177 138.787 16.4886C139.045 16.3595 139.346 16.3164 139.648 16.3164C139.949 16.3164 140.207 16.3595 140.465 16.4456C140.68 16.5316 140.896 16.7038 141.068 16.8759C141.24 17.0481 141.369 17.2633 141.455 17.5215C141.541 17.7797 141.584 18.038 141.584 18.3392V19.9316ZM139.777 19.9316H140.896V18.6835C140.896 18.1671 140.766 17.7797 140.551 17.5215C140.336 17.2633 140.035 17.0911 139.648 17.0911C139.26 17.0911 139.303 17.0911 139.131 17.1772C138.959 17.2633 138.83 17.3494 138.701 17.4785C138.572 17.6076 138.485 17.7367 138.399 17.9089C138.313 18.081 138.27 18.2962 138.27 18.5114C138.27 18.7266 138.27 18.9848 138.399 19.157C138.485 19.3291 138.615 19.5013 138.744 19.5873C138.873 19.6734 139.045 19.8025 139.217 19.8456C139.389 19.8886 139.604 19.9316 139.777 19.9316Z" fill="white" stroke="white" stroke-width="0.7" stroke-miterlimit="10"/>
<path d="M145.07 20.7494H142.66C142.531 20.7494 142.488 20.7063 142.488 20.5772V20.1468C142.488 19.9747 142.531 19.8886 142.66 19.8886H144.339V16.6608H145.07V20.7063V20.7494ZM144.209 22.5139C144.209 22.3848 144.209 22.2557 144.339 22.1696C144.468 22.0835 144.511 22.0405 144.64 22.0405C144.769 22.0405 144.855 22.0835 144.941 22.1696C145.027 22.2557 145.07 22.3848 145.07 22.5139C145.07 22.643 145.07 22.7721 144.941 22.8582C144.855 22.9443 144.769 22.9873 144.64 22.9873C144.511 22.9873 144.425 22.9443 144.339 22.8582C144.253 22.7721 144.209 22.643 144.209 22.5139Z" fill="white" stroke="white" stroke-width="0.7" stroke-miterlimit="10"/>
<path d="M147.782 10.2481V10.5924C147.696 10.5924 147.653 10.5924 147.61 10.5924H147.523C147.351 10.5924 147.179 10.5924 147.05 10.7215C146.921 10.8076 146.878 10.9367 146.878 11.1089C146.878 11.281 146.964 11.4101 147.093 11.5823C147.222 11.7114 147.48 11.7975 147.825 11.7975V12.1418H146.318V11.7975H146.964C146.835 11.6683 146.706 11.5392 146.663 11.4101C146.62 11.281 146.577 11.1519 146.577 11.0658C146.577 10.8506 146.663 10.6354 146.792 10.5063C146.964 10.3342 147.179 10.2911 147.437 10.2911H147.567C147.61 10.2911 147.696 10.2911 147.739 10.2911L147.782 10.2481ZM146.835 20.7494H147.523V13.0456H146.835V20.7494Z" fill="white" stroke="white" stroke-width="0.7" stroke-miterlimit="10"/>
<path d="M157.853 19.9316H158.111C158.24 19.9316 158.283 19.9747 158.283 20.1038V20.5342C158.283 20.7063 158.24 20.7494 158.111 20.7494H157.853C157.637 20.7494 157.465 20.7494 157.25 20.6202C157.078 20.5342 156.906 20.362 156.734 20.1038C156.691 20.6633 156.561 21.1367 156.346 21.524C156.131 21.9114 155.916 22.2127 155.615 22.4709C155.313 22.7291 155.012 22.9013 154.668 22.9873C154.323 23.0734 153.979 23.1595 153.635 23.1595C153.075 23.1595 152.602 23.0734 152.215 22.9013C151.827 22.7291 151.526 22.5139 151.311 22.2557C151.096 21.9975 150.923 21.6962 150.837 21.3949C150.751 21.0937 150.708 20.7494 150.708 20.4481C150.708 20.1468 150.751 19.8025 150.837 19.5013C150.923 19.2 151.053 18.8987 151.225 18.6405L151.827 18.9848C151.698 19.2 151.612 19.4582 151.526 19.7165C151.483 19.9747 151.44 20.2329 151.44 20.4481C151.44 20.6633 151.44 20.8785 151.526 21.0937C151.612 21.3089 151.698 21.524 151.87 21.6962C152.042 21.8683 152.258 22.0405 152.559 22.1266C152.86 22.2126 153.204 22.2987 153.635 22.2987C154.065 22.2987 154.323 22.2557 154.625 22.1266C154.883 21.9975 155.141 21.8683 155.313 21.6962C155.485 21.524 155.658 21.3089 155.744 21.0506C155.83 20.7924 155.873 20.5772 155.873 20.2759C155.873 19.9747 155.83 19.5873 155.701 19.243C155.615 18.8557 155.442 18.5114 155.27 18.2101C155.399 18.1671 155.529 18.081 155.615 18.038C155.744 17.9519 155.83 17.9089 155.959 17.8228C156.045 18.038 156.174 18.2532 156.217 18.4683C156.26 18.6835 156.346 18.8987 156.389 19.0709C156.389 19.243 156.475 19.3721 156.561 19.4582C156.647 19.5443 156.691 19.6304 156.777 19.7165C156.863 19.7595 156.992 19.8025 157.121 19.8456C157.25 19.8456 157.422 19.8456 157.637 19.8456L157.853 19.9316ZM153.549 15.6709C153.549 15.5418 153.549 15.4126 153.678 15.3266C153.764 15.2405 153.85 15.1975 153.979 15.1975C154.108 15.1975 154.194 15.2405 154.28 15.3266C154.366 15.4126 154.41 15.5418 154.41 15.6709C154.41 15.8 154.41 15.9291 154.28 16.0152C154.151 16.1013 154.108 16.1443 153.979 16.1443C153.85 16.1443 153.764 16.1013 153.678 16.0152C153.592 15.9291 153.549 15.8 153.549 15.6709Z" fill="white" stroke="white" stroke-width="0.7" stroke-miterlimit="10"/>
<path d="M158.928 20.7494H157.939C157.809 20.7494 157.766 20.7063 157.766 20.5772V20.1468C157.766 19.9747 157.809 19.8886 157.939 19.8886H158.885C159.187 19.8886 159.359 19.8025 159.488 19.6734C159.574 19.5443 159.617 19.3291 159.617 19.0709V16.6608H160.306V18.5975C160.306 18.7696 160.306 18.9418 160.349 19.1139C160.349 19.2861 160.478 19.4152 160.564 19.5443C160.65 19.6734 160.822 19.7595 160.951 19.8025C161.123 19.8886 161.339 19.8886 161.554 19.8886H161.769C161.898 19.8886 161.941 19.9316 161.941 20.0607V20.4911C161.941 20.6633 161.898 20.7063 161.769 20.7063H161.511C161.209 20.7063 160.951 20.6202 160.693 20.4911C160.435 20.362 160.306 20.0608 160.177 19.7164C160.091 19.9316 160.004 20.1038 159.875 20.2329C159.789 20.362 159.66 20.4911 159.574 20.5342C159.445 20.6202 159.359 20.6633 159.23 20.6633C159.101 20.6633 158.972 20.6633 158.842 20.6633L158.928 20.7494ZM158.842 22.5139C158.842 22.3848 158.842 22.2557 158.972 22.1696C159.058 22.0835 159.144 22.0405 159.273 22.0405C159.402 22.0405 159.488 22.0835 159.574 22.1696C159.66 22.2557 159.703 22.3848 159.703 22.5139C159.703 22.643 159.703 22.7721 159.574 22.8582C159.445 22.9443 159.402 22.9873 159.273 22.9873C159.144 22.9873 159.058 22.9443 158.972 22.8582C158.885 22.7721 158.842 22.643 158.842 22.5139ZM160.263 22.5139C160.263 22.3848 160.263 22.2557 160.392 22.1696C160.478 22.0835 160.564 22.0405 160.693 22.0405C160.822 22.0405 160.908 22.0835 160.994 22.1696C161.08 22.2557 161.123 22.3848 161.123 22.5139C161.123 22.643 161.123 22.7721 160.994 22.8582C160.908 22.9443 160.822 22.9873 160.693 22.9873C160.564 22.9873 160.478 22.9443 160.392 22.8582C160.306 22.7721 160.263 22.643 160.263 22.5139Z" fill="white" stroke="white" stroke-width="0.7" stroke-miterlimit="10"/>
<path d="M163.361 20.7494H161.597C161.468 20.7494 161.425 20.7063 161.425 20.5772V20.1468C161.425 19.9747 161.468 19.8886 161.597 19.8886H163.404C163.706 19.8886 163.878 19.8025 163.964 19.6734C164.05 19.5443 164.093 19.3291 164.093 19.0709V17.7367H164.782V18.5975C164.782 18.7696 164.782 18.9418 164.868 19.1139C164.954 19.2861 164.997 19.4152 165.083 19.5443C165.169 19.6734 165.341 19.7595 165.47 19.8025C165.599 19.8456 165.858 19.8886 166.116 19.8886H166.331C166.632 19.8886 166.804 19.8025 166.934 19.6734C167.02 19.5443 167.063 19.3291 167.063 19.0709V17.3063H167.794V18.6405C167.794 18.8127 167.794 18.9848 167.837 19.157C167.837 19.3291 167.966 19.4582 168.053 19.5873C168.139 19.7164 168.268 19.8025 168.44 19.8456C168.612 19.9316 168.827 19.9316 169.085 19.9316H169.344C169.645 19.9316 169.86 19.8456 169.946 19.7165C170.032 19.5873 170.075 19.3721 170.075 19.1139V16.7038H170.764V18.6405C170.764 18.8127 170.764 18.9848 170.807 19.157C170.85 19.3291 170.936 19.4582 171.022 19.5873C171.108 19.7164 171.237 19.8025 171.41 19.8456C171.582 19.9316 171.797 19.9316 172.055 19.9316H172.313C172.442 19.9316 172.485 19.9747 172.485 20.1038V20.5342C172.485 20.7063 172.442 20.7494 172.313 20.7494H172.055C171.754 20.7494 171.496 20.6633 171.28 20.5342C171.065 20.4051 170.893 20.1038 170.764 19.7165C170.678 19.9316 170.592 20.1468 170.463 20.2759C170.377 20.4051 170.247 20.5342 170.118 20.5772C169.989 20.6202 169.903 20.7063 169.774 20.7063C169.645 20.7063 169.516 20.7063 169.387 20.7063H168.999C168.698 20.7063 168.44 20.6202 168.225 20.4911C168.01 20.362 167.837 20.1038 167.708 19.7165C167.536 20.1038 167.321 20.362 167.063 20.4911C166.847 20.6202 166.589 20.6633 166.331 20.6633H166.03C165.728 20.6633 165.47 20.5772 165.255 20.4481C165.04 20.319 164.868 20.0608 164.739 19.6734C164.653 19.8886 164.566 20.0608 164.437 20.1899C164.351 20.319 164.222 20.4051 164.093 20.4911C163.964 20.5772 163.835 20.6202 163.706 20.6202C163.577 20.6202 163.447 20.6202 163.318 20.6202L163.361 20.7494Z" fill="white" stroke="white" stroke-width="0.7" stroke-miterlimit="10"/>
<path d="M172.141 19.9316H176.058C175.842 19.7164 175.67 19.4582 175.584 19.157C175.455 18.8987 175.412 18.6405 175.369 18.3823C175.283 17.5215 174.853 17.0911 174.121 17.0911C173.389 17.0911 173.82 17.0911 173.604 17.1342C173.432 17.1342 173.217 17.2202 173.045 17.3063C173.045 17.2202 173.045 17.1342 173.002 17.0911C172.959 17.0481 173.002 16.962 172.916 16.8759C172.916 16.8329 172.916 16.7468 172.916 16.7038C172.916 16.6608 172.916 16.5747 172.916 16.5316C173.131 16.4886 173.346 16.4025 173.648 16.3595C173.949 16.3164 174.207 16.2734 174.465 16.2734C174.723 16.2734 174.982 16.3164 175.197 16.4025C175.412 16.4886 175.584 16.6177 175.713 16.7899C175.842 16.962 175.972 17.1772 176.058 17.3924C176.144 17.6076 176.187 17.8658 176.23 18.1671C176.23 18.2962 176.273 18.4683 176.316 18.6405C176.316 18.8127 176.359 18.9418 176.445 19.1139C176.488 19.243 176.574 19.4152 176.66 19.5443C176.746 19.6734 176.875 19.8025 177.048 19.8886V20.7924H172.313C172.184 20.7924 172.141 20.7494 172.141 20.6202V20.1899C172.141 20.0177 172.184 19.9316 172.313 19.9316H172.141Z" fill="white" stroke="white" stroke-width="0.7" stroke-miterlimit="10"/>
<path d="M189.012 19.9316H190.088C190.217 19.9316 190.26 19.9747 190.26 20.1038V20.5342C190.26 20.7063 190.217 20.7494 190.088 20.7494H181.179C181.007 20.7494 180.835 20.7494 180.663 20.6633C180.491 20.6202 180.361 20.5342 180.232 20.4051C180.103 20.2759 180.017 20.1468 179.931 19.9316C179.845 19.7595 179.845 19.5013 179.845 19.243V17.5215H180.577V19.0278C180.577 19.3721 180.663 19.6304 180.792 19.7595C180.921 19.8886 181.093 19.9316 181.308 19.9316H185.569C185.397 19.7595 185.268 19.5873 185.182 19.3291C185.096 19.1139 185.01 18.8127 185.01 18.5114C185.01 18.2101 185.053 17.9519 185.182 17.6937C185.268 17.4354 185.44 17.1772 185.655 16.962C185.87 16.7468 186.086 16.5747 186.344 16.4456C186.602 16.3164 186.903 16.2734 187.248 16.2734C187.807 16.2734 188.28 16.4456 188.582 16.8329C188.883 17.1772 189.055 17.6937 189.055 18.2962V19.9747L189.012 19.9316ZM186.989 19.9316H188.323V18.2101C188.323 18.081 188.323 17.9519 188.237 17.8228C188.194 17.6937 188.108 17.5645 188.022 17.4354C187.936 17.3063 187.807 17.2202 187.635 17.1772C187.463 17.0911 187.291 17.0911 187.075 17.0911C186.86 17.0911 186.688 17.0911 186.516 17.1772C186.344 17.2633 186.215 17.3494 186.086 17.4785C185.956 17.6076 185.87 17.7367 185.784 17.9088C185.698 18.081 185.655 18.2962 185.655 18.5114C185.655 18.9418 185.784 19.2861 186.042 19.5013C186.301 19.7164 186.602 19.8886 186.989 19.9316ZM186.645 14.5949C186.645 14.4658 186.645 14.3367 186.774 14.2506C186.86 14.1645 186.946 14.1215 187.075 14.1215C187.204 14.1215 187.291 14.1645 187.377 14.2506C187.463 14.3367 187.506 14.4658 187.506 14.5949C187.506 14.724 187.506 14.8532 187.377 14.9392C187.291 15.0253 187.204 15.0683 187.075 15.0683C186.946 15.0683 186.86 15.0253 186.774 14.9392C186.688 14.8532 186.645 14.724 186.645 14.5949Z" fill="white" stroke="white" stroke-width="0.7" stroke-miterlimit="10"/>
<path d="M190.777 20.7494H189.787C189.658 20.7494 189.615 20.7063 189.615 20.5772V20.1468C189.615 19.9747 189.658 19.8886 189.787 19.8886H190.734C191.035 19.8886 191.207 19.8025 191.336 19.6734C191.422 19.5443 191.465 19.3291 191.465 19.0709V16.6608H192.154V18.5975C192.154 18.7696 192.154 18.9418 192.197 19.1139C192.197 19.2861 192.326 19.4152 192.412 19.5443C192.498 19.6734 192.67 19.7595 192.799 19.8025C192.972 19.8886 193.187 19.8886 193.402 19.8886H193.617C193.746 19.8886 193.789 19.9316 193.789 20.0607V20.4911C193.789 20.6633 193.746 20.7063 193.617 20.7063H193.359C193.058 20.7063 192.799 20.6202 192.541 20.4911C192.283 20.362 192.154 20.0608 192.025 19.7164C191.939 19.9316 191.853 20.1038 191.723 20.2329C191.637 20.362 191.508 20.4911 191.422 20.5342C191.293 20.6202 191.207 20.6633 191.078 20.6633C190.949 20.6633 190.82 20.6633 190.691 20.6633L190.777 20.7494ZM190.691 22.5139C190.691 22.3848 190.691 22.2557 190.82 22.1696C190.906 22.0835 190.992 22.0405 191.121 22.0405C191.25 22.0405 191.336 22.0835 191.422 22.1696C191.508 22.2557 191.551 22.3848 191.551 22.5139C191.551 22.643 191.551 22.7721 191.422 22.8582C191.293 22.9443 191.25 22.9873 191.121 22.9873C190.992 22.9873 190.906 22.9443 190.82 22.8582C190.734 22.7721 190.691 22.643 190.691 22.5139ZM192.154 22.5139C192.154 22.3848 192.154 22.2557 192.283 22.1696C192.369 22.0835 192.455 22.0405 192.584 22.0405C192.713 22.0405 192.799 22.0835 192.885 22.1696C192.972 22.2557 193.015 22.3848 193.015 22.5139C193.015 22.643 193.015 22.7721 192.885 22.8582C192.799 22.9443 192.713 22.9873 192.584 22.9873C192.455 22.9873 192.369 22.9443 192.283 22.8582C192.197 22.7721 192.154 22.643 192.154 22.5139Z" fill="white" stroke="white" stroke-width="0.7" stroke-miterlimit="10"/>
<path d="M199.729 20.7494H193.445C193.316 20.7494 193.273 20.7063 193.273 20.5772V20.1468C193.273 19.9747 193.316 19.8886 193.445 19.8886H195.123V13.0025H195.812V18.2101H195.941C196.156 17.8228 196.372 17.4785 196.587 17.2202C196.802 16.962 197.017 16.7468 197.275 16.5747C197.534 16.4025 197.749 16.3164 198.007 16.2304C198.265 16.1443 198.48 16.1443 198.739 16.1443C199.126 16.1443 199.427 16.2304 199.729 16.3595C200.03 16.4886 200.288 16.7038 200.46 16.962C200.675 17.2202 200.804 17.5215 200.934 17.8658C201.02 18.2101 201.106 18.5544 201.106 18.9418C201.106 19.3291 201.192 19.5443 201.407 19.7165C201.622 19.8456 201.966 19.9316 202.397 19.9316H202.483C202.612 19.9316 202.655 19.9747 202.655 20.1038V20.5342C202.655 20.7063 202.612 20.7494 202.483 20.7494H202.354C202.053 20.7494 201.794 20.7063 201.536 20.5772C201.321 20.4481 201.106 20.1899 200.977 19.8025C200.804 20.1038 200.589 20.362 200.374 20.5342C200.159 20.7063 199.901 20.7924 199.642 20.7924L199.729 20.7494ZM195.812 19.9316H199.729C200.03 19.9316 200.202 19.8456 200.288 19.7165C200.374 19.5873 200.417 19.3721 200.417 19.0278C200.417 18.4253 200.245 17.9089 199.944 17.5215C199.642 17.1342 199.169 16.962 198.61 16.962C198.05 16.962 197.921 17.0481 197.577 17.2202C197.232 17.3924 196.974 17.6076 196.716 17.8658C196.458 18.124 196.242 18.4683 196.113 18.8127C195.941 19.157 195.855 19.5443 195.855 19.8886L195.812 19.9316Z" fill="white" stroke="white" stroke-width="0.7" stroke-miterlimit="10"/>
<path d="M203.344 20.7494H202.354C202.225 20.7494 202.182 20.7063 202.182 20.5772V20.1468C202.182 19.9747 202.225 19.8886 202.354 19.8886H203.301C203.602 19.8886 203.774 19.8025 203.903 19.6734C203.989 19.5443 204.032 19.3291 204.032 19.0709V13.0456H204.721V18.5975C204.721 18.7696 204.721 18.9418 204.764 19.1139C204.764 19.2861 204.893 19.4152 204.979 19.5443C205.065 19.6734 205.237 19.7595 205.366 19.8025C205.539 19.8886 205.754 19.8886 205.969 19.8886H206.184C206.313 19.8886 206.356 19.9316 206.356 20.0607V20.4911C206.356 20.6633 206.313 20.7063 206.184 20.7063H205.926C205.625 20.7063 205.366 20.6202 205.108 20.4911C204.893 20.319 204.721 20.0608 204.635 19.7164C204.549 19.9316 204.463 20.1038 204.334 20.2329C204.247 20.362 204.118 20.4911 203.989 20.5342C203.86 20.6202 203.774 20.6633 203.645 20.6633C203.516 20.6633 203.387 20.6633 203.258 20.6633L203.344 20.7494Z" fill="white" stroke="white" stroke-width="0.7" stroke-miterlimit="10"/>
<path d="M208.25 20.7494H206.055C205.926 20.7494 205.883 20.7063 205.883 20.5772V20.1468C205.883 19.9747 205.926 19.8886 206.055 19.8886H207.518V13.0025H208.207V20.7063L208.25 20.7494Z" fill="white" stroke="white" stroke-width="0.7" stroke-miterlimit="10"/>
<path d="M210.058 13.0456H210.746V20.7494H210.058V13.0456Z" fill="white" stroke="white" stroke-width="0.7" stroke-miterlimit="10"/>
<path d="M217.116 19.9316H217.374C217.503 19.9316 217.546 19.9747 217.546 20.1038V20.5342C217.546 20.7063 217.503 20.7494 217.374 20.7494H217.116C216.987 20.7494 216.858 20.7494 216.729 20.7494C216.599 20.7494 216.47 20.6633 216.384 20.6202C216.255 20.5772 216.169 20.4481 216.083 20.362C215.997 20.2329 215.954 20.1038 215.911 19.8886H215.782C215.782 20.0607 215.653 20.1899 215.566 20.2759C215.48 20.4051 215.394 20.4911 215.265 20.5342C215.136 20.5772 215.007 20.6633 214.878 20.7063C214.749 20.7063 214.62 20.7494 214.491 20.7494H212.08V19.9316H214.404C214.706 19.9316 214.878 19.8456 215.007 19.7164C215.093 19.5873 215.179 19.3721 215.179 19.1139C215.179 18.8557 215.179 18.4683 215.179 18.2101C215.179 17.9519 215.093 17.7367 214.964 17.5645C214.878 17.3924 214.706 17.2633 214.491 17.1772C214.275 17.0911 213.974 17.0481 213.587 17.0481H212.812V16.2734H213.888C214.275 16.2734 214.62 16.3164 214.878 16.4456C215.136 16.5747 215.351 16.7038 215.523 16.919C215.696 17.1342 215.782 17.3494 215.868 17.6076C215.954 17.8658 215.954 18.1671 215.954 18.5114C215.954 18.9848 216.04 19.3721 216.255 19.5873C216.47 19.8025 216.815 19.9316 217.288 19.9316H217.116Z" fill="white" stroke="white" stroke-width="0.7" stroke-miterlimit="10"/>
<path d="M218.235 20.7494H217.245C217.116 20.7494 217.073 20.7063 217.073 20.5772V20.1468C217.073 19.9747 217.116 19.8886 217.245 19.8886H218.192C218.493 19.8886 218.665 19.8025 218.794 19.6734C218.88 19.5443 218.923 19.3291 218.923 19.0709V16.6608H219.612V18.5975C219.612 18.7696 219.612 18.9418 219.655 19.1139C219.655 19.2861 219.784 19.4152 219.87 19.5443C219.956 19.6734 220.129 19.7595 220.258 19.8025C220.43 19.8886 220.645 19.8886 220.86 19.8886H221.075C221.204 19.8886 221.248 19.9316 221.248 20.0607V20.4911C221.248 20.6633 221.204 20.7063 221.075 20.7063H220.817C220.516 20.7063 220.258 20.6202 219.999 20.4911C219.741 20.362 219.612 20.0608 219.483 19.7164C219.397 19.9316 219.311 20.1038 219.182 20.2329C219.096 20.362 218.967 20.4911 218.88 20.5342C218.751 20.6202 218.665 20.6633 218.536 20.6633C218.407 20.6633 218.278 20.6633 218.149 20.6633L218.235 20.7494ZM218.794 22.5139C218.794 22.3848 218.794 22.2557 218.923 22.1696C219.053 22.0835 219.096 22.0405 219.225 22.0405C219.354 22.0405 219.44 22.0835 219.526 22.1696C219.612 22.2557 219.655 22.3848 219.655 22.5139C219.655 22.643 219.655 22.7721 219.526 22.8582C219.44 22.9443 219.354 22.9873 219.225 22.9873C219.096 22.9873 219.01 22.9443 218.923 22.8582C218.837 22.7721 218.794 22.643 218.794 22.5139Z" fill="white" stroke="white" stroke-width="0.7" stroke-miterlimit="10"/>
<path d="M225.379 20.7494H220.86C220.731 20.7494 220.688 20.7063 220.688 20.5772V20.1468C220.688 19.9747 220.731 19.8886 220.86 19.8886H222.711C222.367 19.6304 222.108 19.3291 221.979 18.9848C221.85 18.6405 221.807 18.3823 221.807 18.081C221.807 17.7797 221.807 17.5646 221.936 17.3494C222.065 17.1342 222.151 16.919 222.323 16.7038C222.496 16.5316 222.711 16.3595 223.012 16.2734C223.27 16.1443 223.615 16.1013 224.002 16.1013C224.389 16.1013 224.303 16.1013 224.432 16.1013C224.604 16.1013 224.777 16.1013 224.949 16.1443C224.949 16.3164 224.949 16.4456 224.949 16.5747C224.949 16.7038 224.949 16.8329 224.906 16.962C224.777 16.962 224.691 16.962 224.561 16.962C224.475 16.962 224.346 16.962 224.217 16.962C223.701 16.962 223.313 17.0911 223.055 17.3063C222.797 17.5215 222.668 17.8658 222.668 18.2532C222.668 18.6405 222.711 18.7696 222.84 18.9418C222.969 19.157 223.098 19.3291 223.313 19.4582C223.485 19.5873 223.744 19.7164 224.002 19.7595C224.26 19.8456 224.518 19.8456 224.82 19.8456H225.508V20.6633L225.379 20.7494Z" fill="white" stroke="white" stroke-width="0.7" stroke-miterlimit="10"/>
<path d="M232.437 19.9316H233.384C233.513 19.9316 233.556 19.9747 233.556 20.1038V20.5342C233.556 20.7063 233.513 20.7494 233.384 20.7494H230.673C230.242 20.7494 229.898 20.7063 229.597 20.5772C229.296 20.4481 229.08 20.319 228.908 20.1038C228.736 19.9316 228.607 19.6734 228.521 19.4582C228.435 19.243 228.392 18.9848 228.392 18.7266C228.392 18.4683 228.435 18.081 228.564 17.7797C228.65 17.4785 228.822 17.2202 228.994 17.0051C229.166 16.7899 229.425 16.6177 229.683 16.4886C229.941 16.3595 230.242 16.3164 230.544 16.3164C230.845 16.3164 231.103 16.3595 231.318 16.4456C231.534 16.5316 231.749 16.7038 231.921 16.8759C232.093 17.0481 232.222 17.2633 232.308 17.5215C232.394 17.7797 232.437 18.038 232.437 18.3392V19.9316ZM230.63 19.9316H231.706V18.6835C231.706 18.1671 231.62 17.7797 231.404 17.5215C231.189 17.2633 230.888 17.0911 230.458 17.0911C230.027 17.0911 230.113 17.0911 229.941 17.1772C229.769 17.2633 229.64 17.3494 229.511 17.4785C229.382 17.6076 229.296 17.7367 229.21 17.9088C229.123 18.081 229.08 18.2962 229.08 18.5114C229.08 18.7266 229.08 18.9848 229.21 19.157C229.296 19.3291 229.425 19.5013 229.554 19.5873C229.683 19.7164 229.855 19.8025 230.027 19.8456C230.199 19.8886 230.415 19.9316 230.587 19.9316H230.63ZM229.382 14.5949C229.382 14.4658 229.382 14.3367 229.511 14.2506C229.64 14.1645 229.683 14.1215 229.812 14.1215C229.941 14.1215 230.027 14.1645 230.113 14.2506C230.199 14.3367 230.242 14.4658 230.242 14.5949C230.242 14.724 230.242 14.8532 230.113 14.9392C229.984 15.0253 229.941 15.0683 229.812 15.0683C229.683 15.0683 229.597 15.0253 229.511 14.9392C229.425 14.8532 229.382 14.724 229.382 14.5949ZM230.802 14.5949C230.802 14.4658 230.802 14.3367 230.931 14.2506C231.017 14.1645 231.103 14.1215 231.232 14.1215C231.361 14.1215 231.448 14.1645 231.534 14.2506C231.62 14.3367 231.663 14.4658 231.663 14.5949C231.663 14.724 231.663 14.8532 231.534 14.9392C231.404 15.0253 231.361 15.0683 231.232 15.0683C231.103 15.0683 231.017 15.0253 230.931 14.9392C230.845 14.8532 230.802 14.724 230.802 14.5949Z" fill="white" stroke="white" stroke-width="0.7" stroke-miterlimit="10"/>
<path d="M237.473 20.7494H233.126C232.997 20.7494 232.954 20.7063 232.954 20.5772V20.1468C232.954 19.9747 232.997 19.8886 233.126 19.8886H236.784V18.5544C236.784 18.2101 236.784 17.9519 236.655 17.7797C236.526 17.6076 236.44 17.4354 236.311 17.3494C236.182 17.2633 235.966 17.1772 235.794 17.1772C235.579 17.1772 235.364 17.1772 235.149 17.1772H234.073V16.3164C234.417 15.8 234.761 15.2405 235.063 14.724C235.407 14.2076 235.751 13.6481 236.096 13.1316C236.182 13.1747 236.225 13.2177 236.268 13.2608C236.311 13.3038 236.354 13.3038 236.397 13.3468C236.397 13.3468 236.483 13.3899 236.526 13.4329C236.569 13.4329 236.612 13.4759 236.655 13.519L234.804 16.4025H235.407C235.665 16.4025 235.923 16.4025 236.182 16.4886C236.44 16.5747 236.655 16.6608 236.827 16.7899C236.999 16.962 237.172 17.1772 237.301 17.4354C237.43 17.6937 237.473 18.038 237.473 18.4683V20.7494Z" fill="white" stroke="white" stroke-width="0.7" stroke-miterlimit="10"/>
<path d="M242.078 19.9316H242.293C242.422 19.9316 242.465 19.9747 242.465 20.1038V20.5342C242.465 20.7063 242.422 20.7494 242.293 20.7494H242.078C241.992 20.7494 241.863 20.7494 241.734 20.7494C241.604 20.7494 241.518 20.7063 241.389 20.6633C241.26 20.6202 241.174 20.5342 241.088 20.4481C241.002 20.362 240.916 20.1899 240.873 20.0177H240.744V20.8354C240.744 21.1367 240.744 21.438 240.615 21.6962C240.529 21.9544 240.399 22.2127 240.27 22.3848C240.098 22.6 239.926 22.7291 239.711 22.8582C239.496 22.9873 239.237 23.0304 238.936 23.0304C238.635 23.0304 238.678 23.0304 238.549 23.0304C238.42 23.0304 238.334 23.0304 238.247 23.0304L238.334 22.2126H238.506C238.592 22.2557 238.678 22.2557 238.721 22.2557C238.807 22.2557 238.893 22.2557 238.936 22.2557C239.366 22.2557 239.668 22.1266 239.84 21.8683C240.012 21.6101 240.055 21.2658 240.055 20.7494V16.7038H240.744V18.6405C240.744 18.8127 240.744 18.9848 240.83 19.157C240.83 19.3291 240.959 19.4582 241.045 19.5873C241.131 19.7164 241.303 19.8025 241.432 19.8456C241.604 19.9316 241.82 19.9316 242.078 19.9316Z" fill="white" stroke="white" stroke-width="0.7" stroke-miterlimit="10"/>
<path d="M243.885 20.7494H242.121C241.992 20.7494 241.949 20.7063 241.949 20.5772V20.1468C241.949 19.9747 241.992 19.8886 242.121 19.8886H243.885C244.187 19.8886 244.359 19.8025 244.488 19.6734C244.574 19.5443 244.617 19.3291 244.617 19.0709V17.7367H245.306V18.5975C245.306 18.7696 245.306 18.9418 245.349 19.1139C245.349 19.2861 245.478 19.4152 245.564 19.5443C245.65 19.6734 245.822 19.7595 245.951 19.8025C246.123 19.8886 246.339 19.8886 246.554 19.8886H246.812C247.113 19.8886 247.329 19.8025 247.415 19.6734C247.501 19.5443 247.544 19.3291 247.544 19.0709V17.3063H248.275V18.6405C248.275 18.8127 248.275 18.9848 248.318 19.157C248.318 19.3291 248.447 19.4582 248.534 19.5873C248.62 19.7165 248.749 19.8025 248.921 19.8456C249.093 19.9316 249.308 19.9316 249.523 19.9316H250.513V16.7038H251.202V20.7494H249.48C249.351 20.7494 249.222 20.7494 249.093 20.7494C248.964 20.7494 248.835 20.6633 248.749 20.5772C248.663 20.4911 248.534 20.4051 248.447 20.2759C248.361 20.1468 248.275 19.9747 248.232 19.7595C248.146 19.9747 248.06 20.1468 247.974 20.2759C247.888 20.4051 247.759 20.4911 247.673 20.5772C247.544 20.6633 247.458 20.7063 247.329 20.7494C247.199 20.7924 247.07 20.7494 246.941 20.7494H246.597C246.296 20.7494 246.037 20.6633 245.822 20.5342C245.607 20.4051 245.435 20.1468 245.263 19.7595C245.091 20.1038 244.918 20.362 244.66 20.4911C244.445 20.6202 244.144 20.7063 243.842 20.7063L243.885 20.7494ZM246.855 14.5949C246.855 14.4658 246.855 14.3367 246.984 14.2506C247.113 14.1645 247.156 14.1215 247.285 14.1215C247.415 14.1215 247.501 14.1645 247.587 14.2506C247.673 14.3367 247.716 14.4658 247.716 14.5949C247.716 14.724 247.716 14.8532 247.587 14.9392C247.501 15.0253 247.415 15.0683 247.285 15.0683C247.156 15.0683 247.07 15.0253 246.984 14.9392C246.898 14.8532 246.855 14.724 246.855 14.5949ZM247.587 13.4759C247.587 13.3468 247.587 13.2177 247.716 13.1316C247.802 13.0456 247.888 13.0025 248.017 13.0025C248.146 13.0025 248.232 13.0456 248.318 13.1316C248.404 13.2177 248.447 13.3468 248.447 13.4759C248.447 13.6051 248.447 13.7342 248.318 13.8202C248.232 13.9063 248.146 13.9494 248.017 13.9494C247.888 13.9494 247.802 13.9063 247.716 13.8202C247.63 13.7342 247.587 13.6051 247.587 13.4759ZM248.275 14.5949C248.275 14.4658 248.275 14.3367 248.404 14.2506C248.491 14.1645 248.577 14.1215 248.706 14.1215C248.835 14.1215 248.921 14.1645 249.007 14.2506C249.093 14.3367 249.136 14.4658 249.136 14.5949C249.136 14.724 249.136 14.8532 249.007 14.9392C248.878 15.0253 248.835 15.0683 248.706 15.0683C248.577 15.0683 248.491 15.0253 248.404 14.9392C248.318 14.8532 248.275 14.724 248.275 14.5949Z" fill="white" stroke="white" stroke-width="0.7" stroke-miterlimit="10"/>
<path d="M78.7917 36.3367H78.0601L77.1993 33.9266H74.1006L73.2398 36.3367H72.5082L75.3917 28.5038H75.9512L78.8348 36.3367H78.7917ZM76.9841 33.324L75.65 29.6658L74.3158 33.324H76.9411H76.9841Z" fill="white" stroke="white" stroke-width="0.9" stroke-miterlimit="10"/>
<path d="M85.3765 33.281C85.3765 33.7114 85.2905 34.0987 85.1613 34.443C85.0322 34.8304 84.817 35.1316 84.5588 35.4329C84.3006 35.7342 83.9993 35.9494 83.655 36.0785C83.3107 36.2506 82.9234 36.3367 82.536 36.3367H79.6525V28.4608H80.2981V31.4304C80.4272 31.2582 80.5563 31.0861 80.7284 30.957C80.9006 30.8278 81.0727 30.6987 81.2879 30.5696C81.5031 30.4405 81.6753 30.3975 81.8905 30.3114C82.1057 30.2253 82.3208 30.2253 82.536 30.2253C82.9234 30.2253 83.3107 30.3114 83.655 30.4835C83.9993 30.6557 84.3006 30.8709 84.5588 31.1291C84.817 31.4304 85.0322 31.7316 85.1613 32.119C85.3335 32.5063 85.3765 32.8937 85.3765 33.281ZM84.731 33.281C84.731 32.9367 84.6879 32.6354 84.5588 32.3342C84.4297 32.0329 84.3006 31.7747 84.0854 31.5595C83.8702 31.3443 83.655 31.1722 83.3968 31.043C83.1386 30.9139 82.8373 30.8709 82.536 30.8709C82.2348 30.8709 81.9335 30.957 81.6753 31.0861C81.417 31.2152 81.1588 31.3873 80.9867 31.6456C80.7715 31.8608 80.6424 32.119 80.5133 32.4203C80.3841 32.7215 80.3411 33.0228 80.3411 33.3241V35.7342C80.6424 35.7342 80.9867 35.7342 81.2449 35.7342H82.536C82.8373 35.7342 83.1386 35.6911 83.3968 35.562C83.655 35.4329 83.9132 35.2608 84.0854 35.0456C84.3006 34.8304 84.4297 34.5722 84.5588 34.2709C84.6879 33.9696 84.731 33.6684 84.731 33.3241V33.281Z" fill="white" stroke="white" stroke-width="0.9" stroke-miterlimit="10"/>
<path d="M92.0044 36.3367H91.3588V35.2608C91.1436 35.6051 90.8424 35.9063 90.4981 36.1215C90.1107 36.3367 89.7234 36.4658 89.25 36.4658C88.7765 36.4658 88.5183 36.3797 88.174 36.2506C87.8297 36.1215 87.4854 35.9063 87.2272 35.6051C86.9689 35.3468 86.7107 35.0025 86.5816 34.6582C86.4525 34.3139 86.3234 33.9266 86.3234 33.4962C86.3234 33.0658 86.4094 32.6354 86.5816 32.2911C86.7538 31.9468 86.9689 31.5595 87.2272 31.3013C87.4854 31 87.8297 30.7848 88.174 30.6557C88.5183 30.4835 88.9057 30.3975 89.293 30.3975H91.4019V28.5038H92.0474V36.3797L92.0044 36.3367ZM91.3588 33.4962V31H89.25C88.9056 31 88.6044 31.0861 88.3462 31.2152C88.0449 31.3443 87.8297 31.5165 87.6145 31.7747C87.3993 31.9899 87.2272 32.2481 87.1411 32.5494C87.055 32.8506 86.9689 33.1519 86.9689 33.4962C86.9689 33.8405 87.012 34.1418 87.1411 34.4C87.2702 34.7013 87.3993 34.9165 87.6145 35.1316C87.8297 35.3468 88.0449 35.519 88.3462 35.6481C88.6474 35.7772 88.9487 35.8202 89.25 35.8202C89.5512 35.8202 89.8525 35.7772 90.1107 35.6481C90.3689 35.519 90.5841 35.3468 90.7563 35.1316C90.9284 34.9165 91.1006 34.6582 91.1867 34.4C91.2727 34.0987 91.3158 33.7975 91.3158 33.4962H91.3588Z" fill="white" stroke="white" stroke-width="0.9" stroke-miterlimit="10"/>
<path d="M98.4171 36.3367H97.7715V35.3899C97.5563 35.7342 97.255 35.9924 96.9107 36.1646C96.5664 36.3367 96.136 36.4228 95.7057 36.4228C95.2753 36.4228 95.1031 36.3797 94.8019 36.2506C94.5006 36.1215 94.2854 35.9924 94.0702 35.7772C93.855 35.562 93.6829 35.3038 93.5538 35.0456C93.4247 34.7873 93.3816 34.4861 93.3816 34.1418V30.3114H94.0272V34.1848C94.0272 34.4 94.0702 34.6152 94.1563 34.8304C94.2424 35.0456 94.3715 35.1747 94.5436 35.3468C94.7158 35.4759 94.8879 35.6051 95.1031 35.6911C95.3183 35.7772 95.5335 35.8202 95.7487 35.8202C95.9639 35.8202 96.2221 35.7772 96.4373 35.6911C96.6955 35.6051 96.9107 35.4759 97.0829 35.3038C97.2981 35.1316 97.4272 34.9165 97.5563 34.7013C97.6854 34.4861 97.7285 34.2278 97.7285 33.9696V30.3975H98.374V36.3797L98.4171 36.3367Z" fill="white" stroke="white" stroke-width="0.9" stroke-miterlimit="10"/>
<path d="M100.569 36.3367H99.8803V28.4608H100.569V36.3367Z" fill="white" stroke="white" stroke-width="0.9" stroke-miterlimit="10"/>
<path d="M102.678 36.3367H101.989V28.4608H102.678V36.3367Z" fill="white" stroke="white" stroke-width="0.9" stroke-miterlimit="10"/>
<path d="M109.607 36.3367H108.961V35.2608C108.746 35.6481 108.445 35.9494 108.058 36.1215C107.713 36.3367 107.283 36.4228 106.766 36.4228C106.25 36.4228 105.992 36.3367 105.647 36.1645C105.303 35.9924 105.002 35.7772 104.701 35.519C104.442 35.2608 104.227 34.9164 104.055 34.5291C103.883 34.1418 103.797 33.7544 103.797 33.324C103.797 32.8937 103.883 32.5063 104.055 32.162C104.227 31.7747 104.442 31.4734 104.701 31.1721C104.959 30.9139 105.303 30.6987 105.647 30.5266C105.992 30.3544 106.379 30.2683 106.766 30.2683H109.607V36.2506V36.3367ZM108.918 33.4101V30.957H106.809C106.508 30.957 106.207 31.043 105.949 31.1721C105.69 31.3013 105.432 31.4734 105.217 31.6886C105.002 31.9038 104.83 32.162 104.701 32.4633C104.571 32.7646 104.528 33.0658 104.528 33.4101C104.528 33.7544 104.571 34.0557 104.701 34.357C104.83 34.6582 105.002 34.9165 105.217 35.1316C105.432 35.3468 105.69 35.519 105.949 35.6481C106.207 35.7772 106.508 35.8202 106.809 35.8202C107.111 35.8202 107.412 35.7772 107.67 35.6481C107.928 35.519 108.144 35.3468 108.316 35.1316C108.488 34.9165 108.66 34.6582 108.746 34.357C108.832 34.0557 108.918 33.7544 108.918 33.4532V33.4101Z" fill="white" stroke="white" stroke-width="0.9" stroke-miterlimit="10"/>
<path d="M113.652 36.3367H112.835C112.62 36.3367 112.404 36.3367 112.232 36.2076C112.06 36.1215 111.888 35.9924 111.759 35.8633C111.63 35.7342 111.544 35.562 111.458 35.3468C111.371 35.1316 111.371 34.9595 111.371 34.7443V30.9139H110.597V30.3544H111.371V28.762H112.017V30.3544H113.652V30.9139H112.017V34.6582C112.017 34.7873 112.017 34.9165 112.06 35.0456C112.06 35.1747 112.146 35.3038 112.232 35.3899C112.318 35.4759 112.404 35.562 112.534 35.6481C112.663 35.7342 112.792 35.7342 112.964 35.7342H113.652V36.2937V36.3367Z" fill="white" stroke="white" stroke-width="0.9" stroke-miterlimit="10"/>
<path d="M115.503 28.9342C115.503 29.1063 115.46 29.2354 115.331 29.3215C115.202 29.4076 115.073 29.4937 114.944 29.4937C114.815 29.4937 114.642 29.4506 114.556 29.3215C114.427 29.1924 114.384 29.0633 114.384 28.9342C114.384 28.8051 114.427 28.6759 114.556 28.5468C114.642 28.4177 114.815 28.3747 114.944 28.3747C115.073 28.3747 115.245 28.4177 115.331 28.5468C115.46 28.6759 115.503 28.8051 115.503 28.9342ZM115.288 36.3367H114.599V30.3544H115.288V36.3367Z" fill="white" stroke="white" stroke-width="0.9" stroke-miterlimit="10"/>
<path d="M119.204 29.0203H118.688C118.387 29.0203 118.171 29.1063 117.999 29.2785C117.827 29.4506 117.741 29.7089 117.741 30.0101V30.3544H119.204V30.9139H117.741V36.3367H117.096V30.9139H116.278V30.3544H117.096V29.924C117.096 29.7089 117.096 29.5367 117.182 29.3646C117.268 29.1924 117.354 29.0203 117.483 28.8911C117.612 28.762 117.784 28.6329 117.956 28.5899C118.128 28.5038 118.344 28.4608 118.559 28.4608H119.204V29.0203Z" fill="white" stroke="white" stroke-width="0.9" stroke-miterlimit="10"/>
<path d="M128.931 36.3367H128.242V32.6785H123.766V36.3367H123.078V28.5038H123.766V32.0759H128.242V28.5038H128.931V36.3367Z" fill="white" stroke="white" stroke-width="0.9" stroke-miterlimit="10"/>
<path d="M131.427 35.8633C131.427 36.0354 131.384 36.1646 131.255 36.2937C131.126 36.4228 130.997 36.4658 130.825 36.4658C130.652 36.4658 130.523 36.4228 130.394 36.2937C130.265 36.1646 130.222 36.0354 130.222 35.8633C130.222 35.6911 130.265 35.562 130.394 35.4329C130.523 35.3038 130.652 35.2608 130.825 35.2608C130.997 35.2608 131.126 35.3038 131.255 35.4329C131.384 35.562 131.427 35.6911 131.427 35.8633Z" fill="white" stroke="white" stroke-width="0.9" stroke-miterlimit="10"/>
<path d="M141.197 36.3367H140.465L139.604 33.9266H136.506L135.645 36.3367H134.913L137.797 28.5038H138.356L141.24 36.3367H141.197ZM139.389 33.324L138.055 29.6658L136.721 33.324H139.346H139.389Z" fill="white" stroke="white" stroke-width="0.9" stroke-miterlimit="10"/>
<path d="M147.825 33.281C147.825 33.7114 147.739 34.0987 147.609 34.443C147.48 34.8304 147.265 35.1316 147.007 35.4329C146.749 35.7342 146.447 35.9494 146.103 36.0785C145.759 36.2506 145.371 36.3367 144.984 36.3367H142.101V28.4608H142.746V31.4304C142.875 31.2582 143.004 31.0861 143.177 30.957C143.349 30.8278 143.521 30.6987 143.736 30.5696C143.951 30.4405 144.123 30.3975 144.339 30.3114C144.554 30.2253 144.769 30.2253 144.984 30.2253C145.371 30.2253 145.759 30.3114 146.103 30.4835C146.447 30.6557 146.749 30.8709 147.007 31.1291C147.265 31.4304 147.48 31.7316 147.609 32.119C147.782 32.5063 147.825 32.8937 147.825 33.281ZM147.136 33.281C147.136 32.9367 147.093 32.6354 146.964 32.3342C146.835 32.0329 146.706 31.7747 146.49 31.5595C146.275 31.3443 146.06 31.1722 145.802 31.043C145.544 30.9139 145.242 30.8709 144.941 30.8709C144.64 30.8709 144.339 30.957 144.08 31.0861C143.822 31.2152 143.564 31.3873 143.392 31.6456C143.177 31.8608 143.047 32.119 142.918 32.4203C142.789 32.7215 142.746 33.0228 142.746 33.3241V35.7342C143.047 35.7342 143.392 35.7342 143.65 35.7342H144.941C145.242 35.7342 145.544 35.6911 145.802 35.562C146.06 35.4329 146.318 35.2608 146.49 35.0456C146.706 34.8304 146.835 34.5722 146.964 34.2709C147.093 33.9696 147.136 33.6684 147.136 33.3241V33.281Z" fill="white" stroke="white" stroke-width="0.9" stroke-miterlimit="10"/>
<path d="M153.936 36.3367H153.29V35.3899C153.075 35.7342 152.774 35.9924 152.43 36.1646C152.085 36.3367 151.655 36.4228 151.225 36.4228C150.794 36.4228 150.622 36.3797 150.321 36.2506C150.02 36.1215 149.804 35.9924 149.589 35.7772C149.374 35.562 149.202 35.3038 149.073 35.0456C148.944 34.7873 148.901 34.4861 148.901 34.1418V30.3114H149.546V34.1848C149.546 34.4 149.589 34.6152 149.675 34.8304C149.761 35.0456 149.89 35.1747 150.063 35.3468C150.235 35.4759 150.407 35.6051 150.622 35.6911C150.837 35.7772 151.052 35.8202 151.268 35.8202C151.483 35.8202 151.741 35.7772 151.956 35.6911C152.215 35.6051 152.43 35.4759 152.602 35.3038C152.817 35.1316 152.946 34.9165 153.075 34.7013C153.204 34.4861 153.247 34.2278 153.247 33.9696V30.3975H153.893V36.3797L153.936 36.3367Z" fill="white" stroke="white" stroke-width="0.9" stroke-miterlimit="10"/>
<path d="M156.088 36.3367H155.399V28.4608H156.088V36.3367Z" fill="white" stroke="white" stroke-width="0.9" stroke-miterlimit="10"/>
<path d="M158.197 30.3544V36.1215C158.197 36.4228 158.197 36.681 158.111 36.9392C158.025 37.1975 157.939 37.4127 157.766 37.6278C157.594 37.843 157.422 38.0152 157.207 38.1443C156.992 38.2734 156.69 38.3595 156.346 38.4025H156.131V37.757H156.303C156.561 37.7139 156.734 37.6278 156.906 37.5418C157.078 37.4557 157.207 37.3266 157.293 37.1544C157.379 37.0253 157.465 36.8101 157.465 36.638C157.465 36.4658 157.508 36.2506 157.508 35.9924V30.3544H158.197ZM158.412 28.9342C158.412 29.1063 158.369 29.2354 158.24 29.3215C158.111 29.4076 157.982 29.4937 157.852 29.4937C157.723 29.4937 157.551 29.4506 157.465 29.3215C157.336 29.1924 157.293 29.0633 157.293 28.9342C157.293 28.8051 157.336 28.6759 157.465 28.5468C157.551 28.4177 157.723 28.3747 157.852 28.3747C157.982 28.3747 158.154 28.4177 158.24 28.5468C158.369 28.6759 158.412 28.8051 158.412 28.9342Z" fill="white" stroke="white" stroke-width="0.9" stroke-miterlimit="10"/>
<path d="M165.169 36.3367H164.523V35.2608C164.308 35.6481 164.007 35.9494 163.62 36.1215C163.275 36.3367 162.845 36.4228 162.328 36.4228C161.812 36.4228 161.554 36.3367 161.209 36.1645C160.865 35.9924 160.564 35.7772 160.263 35.519C160.004 35.2608 159.789 34.9164 159.617 34.5291C159.445 34.1418 159.359 33.7544 159.359 33.324C159.359 32.8937 159.445 32.5063 159.617 32.162C159.789 31.7747 160.004 31.4734 160.263 31.1721C160.521 30.9139 160.865 30.6987 161.209 30.5266C161.554 30.3544 161.941 30.2683 162.328 30.2683H165.169V36.2506V36.3367ZM164.48 33.4101V30.957H162.372C162.07 30.957 161.769 31.043 161.511 31.1721C161.253 31.3013 160.994 31.4734 160.779 31.6886C160.564 31.9038 160.392 32.162 160.263 32.4633C160.134 32.7646 160.091 33.0658 160.091 33.4101C160.091 33.7544 160.134 34.0557 160.263 34.357C160.392 34.6582 160.564 34.9165 160.779 35.1316C160.994 35.3468 161.253 35.519 161.511 35.6481C161.769 35.7772 162.07 35.8202 162.372 35.8202C162.673 35.8202 162.974 35.7772 163.232 35.6481C163.49 35.519 163.706 35.3468 163.878 35.1316C164.05 34.9165 164.222 34.6582 164.308 34.357C164.394 34.0557 164.48 33.7544 164.48 33.4532V33.4101Z" fill="white" stroke="white" stroke-width="0.9" stroke-miterlimit="10"/>
<path d="M172.055 36.3367H171.409V35.2608C171.194 35.6051 170.893 35.9063 170.549 36.1215C170.161 36.3367 169.774 36.4658 169.301 36.4658C168.827 36.4658 168.569 36.3797 168.225 36.2506C167.88 36.1215 167.536 35.9063 167.278 35.6051C167.02 35.3468 166.761 35.0025 166.632 34.6582C166.503 34.3139 166.374 33.9266 166.374 33.4962C166.374 33.0658 166.46 32.6354 166.632 32.2911C166.804 31.9468 167.02 31.5595 167.278 31.3013C167.536 31 167.88 30.7848 168.225 30.6557C168.569 30.4835 168.956 30.3975 169.344 30.3975H171.452V28.5038H172.098V36.3797L172.055 36.3367ZM171.366 33.4962V31H169.258C168.913 31 168.612 31.0861 168.354 31.2152C168.053 31.3443 167.837 31.5165 167.622 31.7747C167.407 31.9899 167.235 32.2481 167.149 32.5494C167.063 32.8506 166.977 33.1519 166.977 33.4962C166.977 33.8405 167.02 34.1418 167.149 34.4C167.278 34.7013 167.407 34.9165 167.622 35.1316C167.837 35.3468 168.053 35.519 168.354 35.6481C168.655 35.7772 168.956 35.8202 169.258 35.8202C169.559 35.8202 169.86 35.7772 170.118 35.6481C170.377 35.519 170.592 35.3468 170.764 35.1316C170.936 34.9165 171.108 34.6582 171.194 34.4C171.28 34.0987 171.323 33.7975 171.323 33.4962H171.366Z" fill="white" stroke="white" stroke-width="0.9" stroke-miterlimit="10"/>
<path d="M178.984 36.3367H178.339V35.2608C178.123 35.6481 177.822 35.9494 177.435 36.1215C177.09 36.3367 176.66 36.4228 176.144 36.4228C175.627 36.4228 175.369 36.3367 175.025 36.1645C174.68 35.9924 174.379 35.7772 174.078 35.519C173.82 35.2608 173.604 34.9164 173.432 34.5291C173.26 34.1418 173.174 33.7544 173.174 33.324C173.174 32.8937 173.26 32.5063 173.432 32.162C173.604 31.7747 173.82 31.4734 174.078 31.1721C174.336 30.9139 174.68 30.6987 175.025 30.5266C175.369 30.3544 175.756 30.2683 176.144 30.2683H178.984V36.2506V36.3367ZM178.296 33.4101V30.957H176.187C175.885 30.957 175.584 31.043 175.326 31.1721C175.068 31.3013 174.809 31.4734 174.594 31.6886C174.379 31.9038 174.207 32.162 174.078 32.4633C173.949 32.7646 173.906 33.0658 173.906 33.4101C173.906 33.7544 173.949 34.0557 174.078 34.357C174.207 34.6582 174.379 34.9165 174.594 35.1316C174.809 35.3468 175.068 35.519 175.326 35.6481C175.584 35.7772 175.885 35.8202 176.187 35.8202C176.488 35.8202 176.789 35.7772 177.047 35.6481C177.306 35.519 177.521 35.3468 177.693 35.1316C177.865 34.9165 178.037 34.6582 178.123 34.357C178.209 34.0557 178.296 33.7544 178.296 33.4532V33.4101Z" fill="white" stroke="white" stroke-width="0.9" stroke-miterlimit="10"/>
<path d="M185.311 35.9063C185.311 36.2937 185.225 36.5949 185.096 36.9392C184.966 37.2405 184.794 37.5418 184.536 37.757C184.321 37.9721 184.063 38.1873 183.761 38.3165C183.46 38.4456 183.159 38.5316 182.858 38.5316C182.341 38.5316 181.868 38.4025 181.437 38.1013C181.007 37.8 180.706 37.4127 180.534 36.8962H181.222C181.394 37.2405 181.653 37.4987 181.911 37.6709C182.212 37.843 182.513 37.9291 182.901 37.9291C183.288 37.9291 183.417 37.8861 183.675 37.757C183.934 37.6278 184.063 37.4987 184.235 37.3266C184.407 37.1544 184.493 36.9392 184.579 36.724C184.665 36.5089 184.708 36.2506 184.708 35.9924V34.9595C184.493 35.3038 184.235 35.562 183.934 35.7342C183.632 35.9063 183.288 35.9924 182.858 35.9924C182.427 35.9924 182.212 35.9494 181.954 35.8202C181.653 35.7342 181.394 35.562 181.179 35.3899C180.964 35.2177 180.792 34.9595 180.663 34.7013C180.534 34.443 180.447 34.0987 180.447 33.7544V30.3975H181.093V33.7544C181.093 34.0127 181.136 34.2278 181.265 34.443C181.394 34.6582 181.523 34.8304 181.696 34.9595C181.868 35.0886 182.04 35.2177 182.255 35.3038C182.47 35.3899 182.685 35.4329 182.901 35.4329C183.116 35.4329 183.417 35.3899 183.632 35.2608C183.847 35.1316 184.063 35.0025 184.235 34.8304C184.407 34.6582 184.536 34.443 184.622 34.2278C184.708 34.0127 184.751 33.7544 184.751 33.4962V30.4835H185.397V36.0354L185.311 35.9063Z" fill="white" stroke="white" stroke-width="0.9" stroke-miterlimit="10"/>
<path d="M192.713 33.324H187.161C187.161 33.7114 187.247 34.0557 187.377 34.357C187.506 34.6582 187.678 34.9165 187.936 35.1316C188.151 35.3468 188.409 35.519 188.711 35.6481C189.012 35.7772 189.313 35.8202 189.615 35.8202C189.916 35.8202 190.346 35.7342 190.691 35.562C191.035 35.3899 191.293 35.1747 191.551 34.8734L192.025 35.2608C191.766 35.6051 191.422 35.8633 190.992 36.0785C190.561 36.2937 190.088 36.4228 189.615 36.4228C189.141 36.4228 188.754 36.3367 188.409 36.1645C188.022 35.9924 187.721 35.7772 187.42 35.519C187.118 35.2177 186.903 34.9164 186.731 34.5291C186.559 34.1418 186.473 33.7544 186.473 33.324C186.473 32.8937 186.559 32.5063 186.731 32.119C186.903 31.7316 187.118 31.4304 187.42 31.1291C187.721 30.8278 188.022 30.6126 188.409 30.4405C188.797 30.2683 189.184 30.1823 189.615 30.1823C190.045 30.1823 190.432 30.2683 190.82 30.4405C191.207 30.6126 191.508 30.8278 191.809 31.0861C192.111 31.3873 192.326 31.6886 192.498 32.0759C192.67 32.4633 192.756 32.8506 192.756 33.281L192.713 33.324ZM191.982 32.7646C191.896 32.4202 191.766 32.162 191.594 31.9038C191.422 31.6456 191.25 31.4734 191.035 31.3013C190.82 31.1291 190.604 31.043 190.346 30.957C190.088 30.8709 189.873 30.8278 189.615 30.8278C189.356 30.8278 189.098 30.8278 188.883 30.957C188.625 31.043 188.409 31.1291 188.194 31.3013C187.979 31.4734 187.764 31.6456 187.635 31.9038C187.463 32.162 187.334 32.4202 187.247 32.7646H192.068H191.982Z" fill="white" stroke="white" stroke-width="0.9" stroke-miterlimit="10"/>
<path d="M194.564 36.3367H193.875V28.4608H194.564V36.3367Z" fill="white" stroke="white" stroke-width="0.9" stroke-miterlimit="10"/>
<path d="M204.807 36.3367H204.032L203.042 35.1316C202.827 35.3899 202.655 35.562 202.44 35.7342C202.268 35.9063 202.139 35.9924 202.052 36.0354C201.88 36.1646 201.708 36.2506 201.493 36.3367C201.321 36.4228 201.063 36.4228 200.804 36.4228C200.546 36.4228 200.245 36.3797 200.03 36.2506C199.814 36.1215 199.556 35.9924 199.384 35.8202C199.212 35.6481 199.083 35.4329 198.954 35.1747C198.868 34.9164 198.825 34.6582 198.825 34.357C198.825 34.0557 198.868 33.7975 198.997 33.5392C199.126 33.281 199.255 33.0658 199.427 32.8937C199.513 32.7646 199.642 32.6785 199.771 32.5494C199.901 32.4203 199.987 32.3342 200.116 32.2051L200.46 31.8608C200.374 31.7747 200.288 31.6886 200.245 31.6025C200.159 31.5165 200.116 31.4304 200.03 31.3443C199.944 31.2582 199.901 31.1721 199.814 31.043C199.728 30.957 199.685 30.8709 199.642 30.7848C199.556 30.6557 199.513 30.5266 199.427 30.3544C199.341 30.1823 199.341 30.0532 199.341 29.881C199.341 29.6658 199.341 29.4506 199.47 29.2785C199.556 29.1063 199.642 28.9342 199.814 28.762C199.944 28.6329 200.116 28.5038 200.288 28.4177C200.46 28.3316 200.675 28.2886 200.89 28.2886C201.106 28.2886 201.278 28.2886 201.45 28.4177C201.622 28.5038 201.794 28.6329 201.923 28.762C202.052 28.8911 202.182 29.0633 202.268 29.2785C202.354 29.4506 202.397 29.6658 202.397 29.881C202.397 30.0962 202.397 30.2253 202.311 30.3975C202.268 30.5696 202.182 30.6987 202.052 30.8709C202.009 30.9139 201.966 31 201.88 31.0861C201.794 31.1721 201.708 31.2582 201.622 31.3873C201.536 31.5165 201.45 31.5595 201.364 31.6456C201.278 31.7316 201.235 31.7747 201.235 31.8177L203.085 34.0987L203.817 33.324H204.592L203.473 34.5721L204.85 36.2506L204.807 36.3367ZM202.655 34.6152L200.804 32.3342C200.675 32.4633 200.589 32.5494 200.503 32.6785C200.417 32.7646 200.331 32.8506 200.245 32.9367C200.159 33.0228 200.073 33.1089 200.03 33.1519C199.858 33.324 199.728 33.5392 199.642 33.7544C199.556 33.9696 199.513 34.1848 199.513 34.4C199.513 34.6152 199.513 34.7873 199.599 35.0025C199.685 35.1747 199.771 35.3468 199.901 35.4759C200.03 35.6051 200.159 35.6911 200.331 35.7772C200.503 35.8633 200.675 35.9063 200.847 35.9063C201.02 35.9063 201.149 35.9063 201.278 35.8633C201.407 35.8202 201.536 35.7772 201.665 35.6911C201.708 35.6911 201.794 35.562 201.923 35.4759C202.052 35.3899 202.139 35.2608 202.268 35.1316C202.397 35.0025 202.526 34.8304 202.698 34.7013L202.655 34.6152ZM201.794 30.0101C201.794 29.881 201.794 29.7949 201.751 29.6658C201.751 29.5367 201.665 29.4506 201.579 29.3215C201.493 29.2354 201.407 29.1494 201.278 29.0633C201.149 28.9772 201.063 28.9772 200.89 28.9772C200.718 28.9772 200.632 28.9772 200.503 29.0633C200.374 29.1063 200.288 29.1924 200.202 29.2785C200.116 29.3646 200.073 29.4937 200.03 29.5797C199.987 29.6658 199.987 29.7949 199.987 29.924C199.987 30.0532 199.987 30.1823 200.03 30.2684C200.03 30.3544 200.116 30.4835 200.202 30.5696C200.202 30.6127 200.288 30.6987 200.374 30.7848C200.46 30.8709 200.503 30.957 200.589 31.0861C200.675 31.2152 200.761 31.3013 200.89 31.4304L201.192 31.1291C201.278 31.043 201.321 31 201.407 30.9139C201.493 30.8278 201.536 30.7848 201.536 30.7418C201.708 30.4835 201.837 30.2253 201.837 29.9671L201.794 30.0101Z" fill="white" stroke="white" stroke-width="0.9" stroke-miterlimit="10"/>
<path d="M212.855 34.2278C212.855 34.5291 212.812 34.8304 212.683 35.0886C212.554 35.3468 212.382 35.6051 212.209 35.8202C211.994 36.0354 211.736 36.1646 211.478 36.2937C211.22 36.4228 210.918 36.4658 210.574 36.4658C210.23 36.4658 210.058 36.4658 209.799 36.3367C209.541 36.2506 209.326 36.1215 209.154 35.9924C208.982 35.8633 208.809 35.6481 208.637 35.4759C208.465 35.3038 208.379 35.0456 208.336 34.8304H209.068C209.154 35.0886 209.369 35.3468 209.627 35.519C209.885 35.6911 210.187 35.8202 210.574 35.8202C210.961 35.8202 211.004 35.8203 211.22 35.6911C211.435 35.562 211.564 35.4759 211.736 35.3468C211.865 35.2177 211.994 35.0456 212.08 34.8304C212.166 34.6582 212.209 34.443 212.209 34.2278C212.209 33.8835 212.123 33.5823 211.951 33.324C211.779 33.0658 211.521 32.8937 211.177 32.7646C211.133 32.7646 211.047 32.7215 210.961 32.6785C210.875 32.6785 210.746 32.6354 210.66 32.5924C210.574 32.5924 210.445 32.5494 210.316 32.5063C210.187 32.5063 210.101 32.4633 210.058 32.4202C209.541 32.2481 209.154 32.0329 208.852 31.6886C208.551 31.3443 208.422 30.9139 208.422 30.4405C208.422 29.9671 208.465 29.881 208.594 29.6228C208.723 29.3646 208.852 29.1494 209.068 28.9772C209.283 28.8051 209.498 28.6329 209.756 28.5468C210.015 28.4177 210.273 28.3747 210.574 28.3747C211.047 28.3747 211.435 28.5038 211.779 28.762C212.123 29.0203 212.382 29.3646 212.554 29.7519H211.822C211.693 29.5367 211.521 29.3646 211.306 29.2354C211.09 29.1063 210.832 29.0203 210.574 29.0203C210.316 29.0203 210.187 29.0202 210.015 29.1494C209.842 29.2354 209.67 29.3215 209.541 29.4506C209.412 29.5797 209.326 29.7519 209.24 29.924C209.154 30.0962 209.111 30.2684 209.111 30.4835C209.111 30.7848 209.197 31.0861 209.369 31.3013C209.541 31.5164 209.799 31.6886 210.144 31.8177C210.23 31.8177 210.316 31.8608 210.402 31.9038C210.488 31.9038 210.617 31.9468 210.746 31.9899C210.875 31.9899 210.961 32.0329 211.09 32.0759C211.22 32.0759 211.263 32.119 211.349 32.119C211.865 32.2911 212.252 32.5494 212.511 32.8937C212.769 33.238 212.898 33.7114 212.898 34.1848L212.855 34.2278Z" fill="white" stroke="white" stroke-width="0.9" stroke-miterlimit="10"/>
<path d="M220.042 33.3241C220.042 33.7544 219.956 34.1418 219.784 34.5291C219.612 34.9165 219.397 35.2177 219.096 35.519C218.794 35.8202 218.493 36.0354 218.106 36.2076C217.718 36.3797 217.331 36.4658 216.901 36.4658C216.47 36.4658 216.04 36.3797 215.696 36.2076C215.308 36.0354 215.007 35.8202 214.706 35.519C214.404 35.2177 214.189 34.9165 214.017 34.5291C213.845 34.1418 213.759 33.7544 213.759 33.3241C213.759 32.8937 213.845 32.5063 214.017 32.119C214.189 31.7316 214.404 31.4304 214.706 31.1291C215.007 30.8278 215.308 30.6127 215.696 30.4835C216.083 30.3114 216.47 30.2253 216.901 30.2253C217.331 30.2253 217.718 30.3114 218.106 30.4835C218.493 30.6557 218.794 30.8709 219.096 31.1291C219.397 31.4304 219.612 31.7316 219.784 32.119C219.956 32.5063 220.042 32.8937 220.042 33.3241ZM219.397 33.3671C219.397 33.0228 219.354 32.6785 219.225 32.3772C219.096 32.0759 218.923 31.8177 218.708 31.6025C218.493 31.3873 218.235 31.2152 217.933 31.0861C217.632 30.957 217.331 30.8709 216.987 30.8709C216.642 30.8709 216.341 30.957 216.04 31.0861C215.739 31.2152 215.48 31.3873 215.265 31.6025C215.05 31.8177 214.878 32.0759 214.749 32.3772C214.62 32.6785 214.577 33.0228 214.577 33.3671C214.577 33.7114 214.62 34.0127 214.749 34.3139C214.878 34.6152 215.05 34.8734 215.265 35.0886C215.48 35.3038 215.739 35.4759 216.04 35.6051C216.341 35.7342 216.642 35.8202 216.987 35.8202C217.331 35.8202 217.632 35.7342 217.933 35.6051C218.235 35.4759 218.493 35.3038 218.708 35.0886C218.923 34.8734 219.096 34.6152 219.225 34.3139C219.354 34.0127 219.397 33.7114 219.397 33.3671Z" fill="white" stroke="white" stroke-width="0.9" stroke-miterlimit="10"/>
<path d="M226.154 32.5494V36.3797H225.508V32.5063C225.508 32.2911 225.465 32.0759 225.379 31.8608C225.293 31.6456 225.164 31.5165 225.035 31.3443C224.906 31.1721 224.69 31.0861 224.518 31C224.346 30.9139 224.088 30.8709 223.873 30.8709C223.658 30.8709 223.399 30.9139 223.184 31C222.926 31.0861 222.711 31.2152 222.539 31.3873C222.366 31.5595 222.194 31.7747 222.065 31.9899C221.936 32.2051 221.893 32.4633 221.893 32.7215V36.2937H221.247V30.3114H221.893V31.3013C222.151 30.957 222.409 30.6987 222.754 30.5266C223.098 30.3114 223.485 30.2253 223.916 30.2253C224.346 30.2253 224.518 30.2684 224.82 30.3975C225.078 30.5266 225.336 30.6557 225.551 30.8709C225.766 31.0861 225.939 31.3443 226.068 31.6025C226.197 31.8608 226.24 32.2051 226.24 32.5063L226.154 32.5494Z" fill="white" stroke="white" stroke-width="0.9" stroke-miterlimit="10"/>
<path d="M231.232 34.7013C231.232 34.9595 231.189 35.1747 231.06 35.3899C230.974 35.6051 230.802 35.7772 230.63 35.9494C230.458 36.1215 230.242 36.2506 230.027 36.3367C229.769 36.4228 229.511 36.4658 229.253 36.4658C228.994 36.4658 228.779 36.4658 228.564 36.3797C228.349 36.2937 228.177 36.2076 228.004 36.1215C227.832 35.9924 227.703 35.8633 227.574 35.6911C227.445 35.519 227.359 35.3468 227.316 35.1747H228.004C228.09 35.3899 228.263 35.562 228.478 35.7342C228.693 35.9063 228.951 35.9494 229.253 35.9494C229.554 35.9494 229.597 35.9494 229.769 35.8633C229.941 35.7772 230.07 35.7342 230.199 35.6481C230.328 35.562 230.415 35.4329 230.501 35.3038C230.587 35.1747 230.63 35.0025 230.63 34.8304C230.63 34.5722 230.544 34.3139 230.415 34.1418C230.285 33.9696 230.027 33.8405 229.726 33.6683C229.683 33.6683 229.597 33.6684 229.511 33.5823C229.382 33.5823 229.296 33.4962 229.166 33.4532C229.037 33.4532 228.908 33.3671 228.779 33.3241C228.65 33.281 228.564 33.281 228.521 33.238C228.177 33.1089 227.918 32.9367 227.746 32.6785C227.574 32.4203 227.488 32.119 227.488 31.8177C227.488 31.5165 227.531 31.3873 227.617 31.2152C227.703 31.043 227.832 30.8709 228.004 30.6987C228.177 30.5696 228.349 30.4405 228.564 30.3544C228.779 30.2684 229.037 30.2253 229.296 30.2253C229.726 30.2253 230.113 30.3544 230.415 30.5696C230.716 30.7848 230.931 31.0861 231.06 31.4304H230.371C230.285 31.2582 230.156 31.0861 229.941 30.957C229.726 30.8278 229.511 30.7848 229.296 30.7848C229.08 30.7848 228.994 30.7848 228.865 30.8709C228.736 30.9139 228.607 31 228.478 31.0861C228.392 31.1721 228.263 31.2582 228.22 31.3873C228.177 31.5165 228.134 31.6456 228.134 31.8177C228.134 31.9899 228.177 32.2051 228.306 32.3772C228.435 32.5494 228.607 32.6785 228.865 32.7646C228.908 32.7646 228.994 32.8076 229.123 32.8506C229.252 32.8937 229.382 32.9367 229.468 32.9367C229.597 32.9367 229.726 33.0228 229.812 33.0228C229.941 33.0228 230.027 33.0658 230.07 33.1089C230.888 33.4101 231.275 33.9696 231.275 34.7013H231.232Z" fill="white" stroke="white" stroke-width="0.9" stroke-miterlimit="10"/>
<path d="M242.766 34.2709C242.594 34.5721 242.379 34.8734 242.164 35.1316C241.906 35.3899 241.647 35.6481 241.346 35.8202C241.045 35.9924 240.701 36.1646 240.356 36.2937C240.012 36.4228 239.625 36.4658 239.194 36.4658C238.764 36.4658 238.118 36.3797 237.602 36.1646C237.128 35.9494 236.698 35.6481 236.311 35.3038C235.966 34.9595 235.665 34.5291 235.45 34.0127C235.235 33.5392 235.149 32.9797 235.149 32.4202C235.149 31.8608 235.235 31.3443 235.45 30.8278C235.665 30.3544 235.966 29.924 236.311 29.5367C236.655 29.1924 237.085 28.8911 237.602 28.6759C238.075 28.4608 238.635 28.3747 239.194 28.3747C239.754 28.3747 239.883 28.4177 240.227 28.5038C240.572 28.5899 240.916 28.719 241.217 28.9342C241.518 29.1063 241.82 29.3646 242.078 29.6228C242.336 29.881 242.551 30.1823 242.766 30.5696L242.164 30.8709C242.035 30.6127 241.863 30.3544 241.647 30.1392C241.432 29.924 241.217 29.7089 240.959 29.5797C240.701 29.4506 240.442 29.3215 240.141 29.2354C239.84 29.1494 239.539 29.1063 239.237 29.1063C238.764 29.1063 238.334 29.1924 237.946 29.3646C237.559 29.5367 237.171 29.7949 236.87 30.0962C236.569 30.3975 236.311 30.7418 236.139 31.1722C235.966 31.6025 235.88 32.0329 235.88 32.4633C235.88 32.8937 235.966 33.3671 236.139 33.7544C236.311 34.1418 236.526 34.5291 236.827 34.8304C237.128 35.1316 237.473 35.3899 237.903 35.562C238.29 35.7342 238.764 35.8202 239.194 35.8202C239.625 35.8202 239.797 35.7772 240.098 35.6911C240.399 35.6051 240.701 35.4759 240.959 35.3038C241.217 35.1316 241.432 34.9595 241.647 34.7013C241.863 34.4861 242.035 34.2278 242.164 33.9266L242.809 34.2278L242.766 34.2709Z" fill="white" stroke="white" stroke-width="0.9" stroke-miterlimit="10"/>
<path d="M249.868 33.3241C249.868 33.7544 249.782 34.1418 249.609 34.5291C249.437 34.9165 249.222 35.2177 248.921 35.519C248.62 35.8202 248.318 36.0354 247.931 36.2076C247.544 36.3797 247.156 36.4658 246.726 36.4658C246.296 36.4658 245.865 36.3797 245.521 36.2076C245.134 36.0354 244.832 35.8202 244.531 35.519C244.23 35.2177 244.015 34.9165 243.842 34.5291C243.67 34.1418 243.584 33.7544 243.584 33.3241C243.584 32.8937 243.67 32.5063 243.842 32.119C244.015 31.7316 244.23 31.4304 244.531 31.1291C244.832 30.8278 245.134 30.6127 245.521 30.4835C245.908 30.3114 246.296 30.2253 246.726 30.2253C247.156 30.2253 247.544 30.3114 247.931 30.4835C248.318 30.6557 248.62 30.8709 248.921 31.1291C249.222 31.4304 249.437 31.7316 249.609 32.119C249.782 32.5063 249.868 32.8937 249.868 33.3241ZM249.222 33.3671C249.222 33.0228 249.179 32.6785 249.05 32.3772C248.921 32.0759 248.749 31.8177 248.533 31.6025C248.318 31.3873 248.06 31.2152 247.759 31.0861C247.458 30.957 247.156 30.8709 246.812 30.8709C246.468 30.8709 246.166 30.957 245.865 31.0861C245.564 31.2152 245.306 31.3873 245.09 31.6025C244.875 31.8177 244.703 32.0759 244.574 32.3772C244.445 32.6785 244.402 33.0228 244.402 33.3671C244.402 33.7114 244.445 34.0127 244.574 34.3139C244.703 34.6152 244.875 34.8734 245.09 35.0886C245.306 35.3038 245.564 35.4759 245.865 35.6051C246.166 35.7342 246.468 35.8202 246.812 35.8202C247.156 35.8202 247.458 35.7342 247.759 35.6051C248.06 35.4759 248.318 35.3038 248.533 35.0886C248.749 34.8734 248.921 34.6152 249.05 34.3139C249.179 34.0127 249.222 33.7114 249.222 33.3671Z" fill="white" stroke="white" stroke-width="0.9" stroke-miterlimit="10"/>
<path d="M251.934 35.8633C251.934 36.0354 251.89 36.1646 251.761 36.2937C251.632 36.4228 251.503 36.4658 251.331 36.4658C251.159 36.4658 251.03 36.4228 250.901 36.2937C250.771 36.1646 250.728 36.0354 250.728 35.8633C250.728 35.6911 250.771 35.562 250.901 35.4329C251.03 35.3038 251.159 35.2608 251.331 35.2608C251.503 35.2608 251.632 35.3038 251.761 35.4329C251.89 35.562 251.934 35.6911 251.934 35.8633Z" fill="white" stroke="white" stroke-width="0.9" stroke-miterlimit="10"/>
</svg>
